<svg width="45" height="64" viewBox="0 0 45 64" fill="none" xmlns="http://www.w3.org/2000/svg">
<path fill-rule="evenodd" clip-rule="evenodd" d="M45 32.7757C45 45.1717 34.9242 55.2166 22.5 55.2166C10.0758 55.2166 0 45.1717 0 32.7757C0 20.3796 10.0758 10.3347 22.5 10.3347C34.9242 10.3347 45 20.3796 45 32.7757ZM6.49606 32.7757C6.49606 41.5795 13.659 48.7205 22.5 48.7205C31.341 48.7205 38.5039 41.5795 38.5039 32.7757C38.5039 23.9718 31.341 16.8308 22.5 16.8308C13.659 16.8308 6.49606 23.9718 6.49606 32.7757Z" fill="#F9F7F4"/>
<path fill-rule="evenodd" clip-rule="evenodd" d="M22.4999 7.67717C24.6264 7.67717 26.3503 5.95857 26.3503 3.83858C26.3503 1.71859 24.6264 0 22.4999 0C20.3734 0 18.6495 1.71859 18.6495 3.83858C18.6495 5.95857 20.3734 7.67717 22.4999 7.67717Z" fill="#F9F7F4"/>
<path d="M15.0513 62.5111C17.5385 63.2068 20.0327 63.5559 22.5283 63.5559C25.0238 63.5559 27.518 63.2068 30.0052 62.5111C31.2616 62.1597 31.9952 60.8563 31.6438 59.5999C31.2924 58.3436 29.989 57.6099 28.7326 57.9613C26.6556 58.5422 24.5893 58.8314 22.5283 58.8314C20.4672 58.8314 18.4009 58.5422 16.3239 57.9613C15.0675 57.6099 13.7641 58.3436 13.4127 59.5999C13.0613 60.8563 13.7949 62.1597 15.0513 62.5111Z" fill="#F9F7F4"/>
</svg>
