<svg style="position: absolute; width: 0; height: 0; overflow: hidden;" version="1.1" xmlns="http://www.w3.org/2000/svg" xmlns:xlink="http://www.w3.org/1999/xlink">
    <defs>
        <symbol id="icon-dribbble" viewBox="0 0 20 20">
            <title>dribbble</title>
            <path d="M16.6575 9.64341C16.5892 8.33168 16.133 7.06975 15.3467 6.01758C15.1071 6.27561 14.851 6.51778 14.58 6.74258C13.7475 7.43412 12.8171 7.99857 11.8192 8.41758C11.9584 8.70925 12.0859 8.99175 12.1984 9.25841V9.26091C12.2301 9.33543 12.2607 9.41044 12.29 9.48592C13.5517 9.34425 14.8817 9.39592 16.1709 9.57008C16.3425 9.59342 16.5042 9.61841 16.6575 9.64341ZM8.83669 3.43508C9.6488 4.57939 10.3977 5.76728 11.08 6.99342C12.0992 6.59175 12.9417 6.08508 13.62 5.52091C13.8555 5.32686 14.0771 5.11663 14.2834 4.89175C13.0842 3.88318 11.5669 3.33119 10 3.33341C9.61005 3.33315 9.2208 3.36689 8.83669 3.43425V3.43508ZM3.54419 8.33091C4.11188 8.31659 4.67889 8.2824 5.24419 8.22841C6.61055 8.1062 7.96525 7.87717 9.29585 7.54342C8.60045 6.33526 7.84965 5.15984 7.04585 4.02091C6.18729 4.44625 5.43024 5.05126 4.82606 5.79491C4.22188 6.53855 3.7847 7.40345 3.54419 8.33091ZM4.81919 14.1959C5.14252 13.7234 5.56752 13.1917 6.13169 12.6134C7.34335 11.3717 8.77335 10.4051 10.4284 9.87175L10.48 9.85675C10.3425 9.55342 10.2134 9.28258 10.0834 9.02758C8.55335 9.47342 6.94169 9.75175 5.33585 9.89592C4.55252 9.96675 3.85002 9.99758 3.33335 10.0026C3.33188 11.5297 3.85693 13.0107 4.82002 14.1959H4.81919ZM12.5042 16.1792C12.1828 14.5586 11.7279 12.9674 11.1442 11.4217C9.47585 12.0276 8.14669 12.9134 7.11919 13.9701C6.70452 14.3887 6.33653 14.8512 6.02169 15.3492C7.17069 16.2066 8.56642 16.6688 10 16.6667C10.8583 16.668 11.7087 16.503 12.5042 16.1809V16.1792ZM14.065 15.2834C15.3661 14.2832 16.2524 12.8382 16.5542 11.2251C16.2709 11.1542 15.9117 11.0834 15.5167 11.0284C14.6385 10.9019 13.7473 10.8927 12.8667 11.0009C13.3626 12.3999 13.7629 13.831 14.065 15.2842V15.2834ZM10 18.3334C5.39752 18.3334 1.66669 14.6026 1.66669 10.0001C1.66669 5.39758 5.39752 1.66675 10 1.66675C14.6025 1.66675 18.3334 5.39758 18.3334 10.0001C18.3334 14.6026 14.6025 18.3334 10 18.3334Z" fill="#F9F7F4" />
        </symbol>
        <symbol id='icon-behance' viewBox="0 0 20 20">
            <title>behance</title>
            <path d="M6.20248 4.45825C6.73498 4.45825 7.22748 4.49992 7.67748 4.62325C8.08582 4.69829 8.47561 4.85228 8.82498 5.07659C9.15331 5.28242 9.39915 5.57159 9.56248 5.94242C9.72665 6.31325 9.80831 6.76742 9.80831 7.26159C9.80831 7.83909 9.68581 8.33325 9.39915 8.70409C9.15331 9.07575 8.74331 9.40492 8.25165 9.65242C8.94831 9.85909 9.48081 10.2299 9.80831 10.7241C10.1366 11.2191 10.3416 11.8374 10.3416 12.5383C10.3416 13.1158 10.2183 13.6099 10.0133 14.0224C9.80831 14.4349 9.48081 14.8058 9.11165 15.0533C8.71064 15.3185 8.26735 15.5136 7.80081 15.6299C7.30915 15.7541 6.81748 15.8366 6.32581 15.8366H0.833313V4.45825H6.20248ZM5.87415 9.07492C6.32498 9.07492 6.69415 8.95159 6.98081 8.74575C7.26748 8.53992 7.39081 8.16825 7.39081 7.71492C7.39081 7.46742 7.34915 7.21992 7.26748 7.05575C7.18581 6.89075 7.06248 6.76659 6.89915 6.64325C6.73498 6.56075 6.57081 6.47825 6.36581 6.43742C6.16081 6.39575 5.95665 6.39575 5.70998 6.39575H3.33331V9.07575H5.87498L5.87415 9.07492ZM5.99748 13.9399C6.24331 13.9399 6.48915 13.8983 6.69415 13.8574C6.90112 13.8181 7.09688 13.7336 7.26748 13.6099C7.43447 13.4893 7.57417 13.3348 7.67748 13.1566C7.75915 12.9508 7.84165 12.7033 7.84165 12.4149C7.84165 11.8374 7.67748 11.4249 7.34998 11.1366C7.02165 10.8891 6.57081 10.7658 6.03831 10.7658H3.33331V13.9408H5.99748V13.9399ZM13.9075 13.8983C14.235 14.2283 14.7266 14.3933 15.3825 14.3933C15.8333 14.3933 16.2433 14.2699 16.5708 14.0641C16.8991 13.8166 17.1041 13.5691 17.1858 13.3216H19.1941C18.8658 14.3108 18.3741 15.0116 17.7191 15.4649C17.0625 15.8774 16.2841 16.1249 15.3416 16.1249C14.7386 16.1267 14.1407 16.0148 13.5791 15.7949C13.0739 15.6054 12.6233 15.2939 12.2675 14.8883C11.8869 14.5087 11.6056 14.0414 11.4483 13.5274C11.2433 12.9916 11.1608 12.4149 11.1608 11.7549C11.1608 11.1366 11.2433 10.5599 11.4483 10.0233C11.6454 9.50666 11.9371 9.03132 12.3083 8.62159C12.6775 8.25075 13.1283 7.92159 13.62 7.71492C14.1672 7.49497 14.7519 7.38291 15.3416 7.38492C16.0383 7.38492 16.6533 7.50909 17.1858 7.79742C17.7191 8.08575 18.1283 8.41575 18.4566 8.91075C18.7916 9.38619 19.0411 9.91634 19.1941 10.4774C19.2758 11.0541 19.3166 11.6316 19.2758 12.2908H13.3333C13.3333 12.9508 13.5791 13.5691 13.9075 13.8991V13.8983ZM16.4891 9.56992C16.2025 9.28159 15.7516 9.11659 15.2183 9.11659C14.85 9.11659 14.5625 9.19909 14.3166 9.32242C14.0708 9.44659 13.9075 9.61159 13.7433 9.77659C13.5925 9.93597 13.4926 10.1368 13.4566 10.3533C13.415 10.5599 13.3741 10.7241 13.3741 10.8891H17.0625C16.9808 10.2708 16.7758 9.85909 16.4891 9.56992ZM12.8825 5.24159H17.4725V6.35492H12.8833V5.24159H12.8825Z" fill="#F9F7F4" />
        </symbol>

        <symbol id='icon-twitter' viewBox="0 0 20 20">
            <title>twitter</title>
            <path d="M18.4683 4.71327C17.8321 4.99468 17.1574 5.1795 16.4666 5.26161C17.1948 4.82613 17.7397 4.14078 18 3.33327C17.3166 3.73994 16.5675 4.02494 15.7866 4.17911C15.2622 3.61792 14.5669 3.24574 13.8091 3.12043C13.0513 2.99511 12.2733 3.12368 11.596 3.48615C10.9188 3.84862 10.3803 4.42468 10.0642 5.12477C9.74818 5.82486 9.67227 6.60976 9.84832 7.35744C8.46257 7.28798 7.10693 6.92787 5.86939 6.30049C4.63185 5.67311 3.54009 4.79248 2.66498 3.71577C2.35522 4.24781 2.19245 4.85263 2.19332 5.46827C2.19332 6.6766 2.80832 7.74411 3.74332 8.36911C3.18999 8.35169 2.64884 8.20226 2.16498 7.93327V7.9766C2.16515 8.78136 2.44362 9.56129 2.95319 10.1842C3.46275 10.807 4.17205 11.2345 4.96082 11.3941C4.44716 11.5333 3.90857 11.5538 3.38582 11.4541C3.60821 12.1468 4.04166 12.7526 4.62548 13.1867C5.2093 13.6208 5.91426 13.8614 6.64165 13.8749C5.91872 14.4427 5.09096 14.8624 4.20572 15.1101C3.32047 15.3577 2.39509 15.4285 1.48248 15.3183C3.07556 16.3428 4.93006 16.8867 6.82415 16.8849C13.235 16.8849 16.7408 11.5741 16.7408 6.96827C16.7408 6.81827 16.7366 6.66661 16.73 6.51827C17.4124 6.02508 18.0013 5.41412 18.4691 4.71411L18.4683 4.71327Z" fill="#F9F7F4" />
        </symbol>
        <symbol id='icon-instagram' viewBox="0 0 20 20">
            <title>instagram</title>
            <path d="M10 7.50008C9.33698 7.50008 8.70109 7.76347 8.23225 8.23231C7.76341 8.70116 7.50002 9.33704 7.50002 10.0001C7.50002 10.6631 7.76341 11.299 8.23225 11.7678C8.70109 12.2367 9.33698 12.5001 10 12.5001C10.6631 12.5001 11.2989 12.2367 11.7678 11.7678C12.2366 11.299 12.5 10.6631 12.5 10.0001C12.5 9.33704 12.2366 8.70116 11.7678 8.23231C11.2989 7.76347 10.6631 7.50008 10 7.50008ZM10 5.83342C11.1051 5.83342 12.1649 6.2724 12.9463 7.0538C13.7277 7.83521 14.1667 8.89501 14.1667 10.0001C14.1667 11.1052 13.7277 12.165 12.9463 12.9464C12.1649 13.7278 11.1051 14.1667 10 14.1667C8.89495 14.1667 7.83514 13.7278 7.05374 12.9464C6.27234 12.165 5.83335 11.1052 5.83335 10.0001C5.83335 8.89501 6.27234 7.83521 7.05374 7.0538C7.83514 6.2724 8.89495 5.83342 10 5.83342ZM15.4167 5.62508C15.4167 5.90135 15.3069 6.1663 15.1116 6.36165C14.9162 6.557 14.6513 6.66675 14.375 6.66675C14.0988 6.66675 13.8338 6.557 13.6385 6.36165C13.4431 6.1663 13.3334 5.90135 13.3334 5.62508C13.3334 5.34881 13.4431 5.08386 13.6385 4.88851C13.8338 4.69316 14.0988 4.58341 14.375 4.58341C14.6513 4.58341 14.9162 4.69316 15.1116 4.88851C15.3069 5.08386 15.4167 5.34881 15.4167 5.62508ZM10 3.33341C7.93835 3.33341 7.60169 3.33925 6.64252 3.38175C5.98919 3.41258 5.55085 3.50008 5.14419 3.65841C4.78252 3.79841 4.52169 3.96591 4.24419 4.24425C3.98336 4.49625 3.78281 4.8039 3.65752 5.14425C3.49919 5.55258 3.41169 5.99008 3.38169 6.64258C3.33835 7.56258 3.33335 7.88425 3.33335 10.0001C3.33335 12.0617 3.33919 12.3984 3.38169 13.3576C3.41252 14.0101 3.50002 14.4492 3.65752 14.8551C3.79919 15.2176 3.96585 15.4784 4.24252 15.7551C4.52335 16.0351 4.78419 16.2026 5.14252 16.3409C5.55419 16.5001 5.99252 16.5884 6.64252 16.6184C7.56252 16.6617 7.88419 16.6667 10 16.6667C12.0617 16.6667 12.3984 16.6609 13.3575 16.6184C14.0092 16.5876 14.4484 16.5001 14.855 16.3426C15.2159 16.2017 15.4784 16.0342 15.755 15.7576C16.0359 15.4767 16.2034 15.2159 16.3417 14.8576C16.5 14.4467 16.5884 14.0076 16.6184 13.3576C16.6617 12.4376 16.6667 12.1159 16.6667 10.0001C16.6667 7.93842 16.6609 7.60175 16.6184 6.64258C16.5875 5.99092 16.5 5.55091 16.3417 5.14425C16.2161 4.80425 16.0159 4.49672 15.7559 4.24425C15.504 3.98329 15.1963 3.78272 14.8559 3.65758C14.4475 3.49925 14.0092 3.41175 13.3575 3.38175C12.4375 3.33841 12.1159 3.33341 10 3.33341ZM10 1.66675C12.2642 1.66675 12.5467 1.67508 13.435 1.71675C14.3225 1.75841 14.9267 1.89758 15.4584 2.10425C16.0084 2.31591 16.4717 2.60258 16.935 3.06508C17.3588 3.48166 17.6866 3.98557 17.8959 4.54175C18.1017 5.07258 18.2417 5.67758 18.2834 6.56508C18.3225 7.45341 18.3334 7.73592 18.3334 10.0001C18.3334 12.2642 18.325 12.5467 18.2834 13.4351C18.2417 14.3226 18.1017 14.9267 17.8959 15.4584C17.6873 16.0149 17.3593 16.5189 16.935 16.9351C16.5183 17.3587 16.0144 17.6865 15.4584 17.8959C14.9275 18.1017 14.3225 18.2417 13.435 18.2834C12.5467 18.3226 12.2642 18.3334 10 18.3334C7.73585 18.3334 7.45335 18.3251 6.56502 18.2834C5.67752 18.2417 5.07335 18.1017 4.54169 17.8959C3.98529 17.6871 3.48129 17.3592 3.06502 16.9351C2.64119 16.5186 2.3133 16.0146 2.10419 15.4584C1.89752 14.9276 1.75835 14.3226 1.71669 13.4351C1.67752 12.5467 1.66669 12.2642 1.66669 10.0001C1.66669 7.73592 1.67502 7.45341 1.71669 6.56508C1.75835 5.67675 1.89752 5.07341 2.10419 4.54175C2.31272 3.98523 2.64069 3.48118 3.06502 3.06508C3.48141 2.64111 3.98538 2.31319 4.54169 2.10425C5.07335 1.89758 5.67669 1.75841 6.56502 1.71675C7.45335 1.67758 7.73585 1.66675 10 1.66675Z" fill="#F9F7F4" />
        </symbol>
        <symbol id='client-icon-fire' viewBox="0 0 38 18">
            <title>client-fire</title>
            <path fill-rule="evenodd" clip-rule="evenodd" d="M11.1298 17.8688H14.2899V4.89966H11.1298V17.8688Z" fill="#787878" />
            <path fill-rule="evenodd" clip-rule="evenodd" d="M23.902 4.89966H23.403C19.6024 4.89966 16.5215 7.90272 16.5215 11.6071V17.8688H19.6816V11.6781C19.6816 9.63554 21.3803 7.97982 23.4758 7.97982H23.902V4.89966Z" fill="#787878" />
            <mask id="mask0" mask-type="alpha" maskUnits="userSpaceOnUse" x="0" y="0" width="10" height="18">
                <path d="M0 0.0541992H9.10613V17.8687H0V0.0541992Z" fill="#787878" />
            </mask>
            <g mask="url(#mask0)">
                <path fill-rule="evenodd" clip-rule="evenodd" d="M6.95433 3.13424H9.10613V0.0540771H6.88155C3.081 0.0540771 0 3.05714 0 6.76155V12.0325V13.0232V17.8686H3.1601V13.0232V12.0325V11.0328H6.73604L8.09433 7.95263H3.1601V6.83249C3.1601 4.79001 4.85884 3.13424 6.95433 3.13424Z" fill="#787878" />
            </g>
            <path fill-rule="evenodd" clip-rule="evenodd" d="M35.3437 10.7559L35.293 10.7899L35.3437 10.7559Z" fill="#787878" />
            <path fill-rule="evenodd" clip-rule="evenodd" d="M31.7815 7.80393C32.6323 7.80393 33.4156 8.08602 34.0385 8.55941L28.2675 12.429C28.1638 12.0987 28.1083 11.7476 28.1083 11.3842C28.1083 9.40725 29.7532 7.80393 31.7815 7.80393ZM31.7815 14.9645C31.1025 14.9645 30.4658 14.7847 29.9204 14.4705L35.4024 10.7816C35.4026 10.7828 35.4029 10.784 35.4031 10.7852L37.987 9.04248C37.9773 8.98598 37.9561 8.93677 37.9246 8.894C36.9233 6.54845 34.5499 4.89966 31.7815 4.89966C28.1075 4.89966 25.1287 7.80312 25.1287 11.3842C25.1287 14.9653 28.1075 17.8688 31.7815 17.8688C34.0044 17.8688 35.9728 16.8061 37.1803 15.1736L34.762 13.4763C34.0959 14.3777 33.009 14.9645 31.7815 14.9645Z" fill="#787878" />
            <path fill-rule="evenodd" clip-rule="evenodd" d="M14.2216 1.78704C14.2216 2.60081 13.5448 3.26048 12.7099 3.26048C11.875 3.26048 11.1982 2.60081 11.1982 1.78704C11.1982 0.973267 11.875 0.313599 12.7099 0.313599C13.5448 0.313599 14.2216 0.973267 14.2216 1.78704Z" fill="#787878" />
        </symbol>

        <symbol id='client-icon-kit' viewBox="0 0 23 23">
            <title>client-kit</title>
            <path fill-rule="evenodd" clip-rule="evenodd" d="M21.7814 22.5856L5.91397 22.5856C5.42789 22.5856 5.03154 22.1976 5.03154 21.7213L5.03154 1.27492C5.03154 0.80103 5.42789 0.413087 5.91397 0.413087L21.7913 0.413086L21.7913 0.416667C21.8038 0.41428 21.815 0.41428 21.8275 0.41428C22.2762 0.41428 22.6414 0.764026 22.6414 1.19494C22.6414 1.38235 22.5716 1.55543 22.4532 1.69151L22.4544 1.69151L13.7461 10.9843C13.5965 11.1275 13.5168 11.3185 13.518 11.519C13.5217 11.7231 13.6053 11.9153 13.7586 12.0586L22.3721 21.2295C22.4145 21.2666 22.4519 21.3047 22.4856 21.3501L22.498 21.362L22.4968 21.3632C22.5865 21.491 22.6414 21.6414 22.6414 21.8073C22.6414 22.237 22.2762 22.5868 21.8275 22.5868C21.8113 22.5868 21.7963 22.5856 21.7814 22.5856Z" fill="#707070" />
            <path fill-rule="evenodd" clip-rule="evenodd" d="M1.0472 22.5868C0.4703 22.5868 -9.27462e-05 22.1988 -9.2767e-05 21.7225L-9.36608e-05 1.27496C-9.36815e-05 0.801051 0.470299 0.413086 1.0472 0.413086L2.72614 0.413086C3.30304 0.413086 3.77344 0.80105 3.77344 1.27496L3.77344 21.7225C3.77344 22.1988 3.30305 22.5868 2.72614 22.5868L1.0472 22.5868Z" fill="#707070" />
        </symbol>
        <symbol id='client-icon-map' viewBox="0 0 26 26">
            <title>client-map</title>
            <path fill-rule="evenodd" clip-rule="evenodd" d="M9.90147 0.174391C5.60665 1.2592 2.08062 4.50662 0.595979 8.74496C0.035141 10.3463 -0.0653687 11.2108 0.0335656 13.5816C0.135966 16.0423 0.300436 16.7698 1.14736 18.5113C4.45851 25.3191 12.861 28.0226 19.3352 24.3634C23.9501 21.755 26.7241 16.0189 25.8346 10.9228C25.0674 6.52521 22.25 2.81226 18.3433 1.04892C16.5553 0.241849 15.784 0.0759379 13.5302 0.011822C12.0544 -0.0301117 10.4213 0.0431203 9.90147 0.174391ZM16.8697 1.97207C21.1217 4.07422 22.814 8.04151 21.5949 13.0498C20.6746 16.8312 17.9098 21.0701 14.5681 23.8238L12.8226 25.262L10.3905 22.8265C6.05627 18.4866 4.23008 14.7099 4.23008 10.0871C4.23008 7.77198 4.35044 7.12505 5.01494 5.87038C5.95891 4.08729 8.04787 2.2419 9.84602 1.60226C11.6772 0.950771 15.1771 1.13522 16.8697 1.97207ZM10.7651 5.98342C5.88487 8.85314 9.63019 15.894 14.9058 13.7679C18.3241 12.3905 18.3241 7.1761 14.9058 5.79867C13.4439 5.20947 11.969 5.27541 10.7651 5.98342ZM18.8453 16.1624C17.4737 17.4122 15.0426 18.4435 13.4675 18.4435C12.9539 18.4435 12.8947 18.7422 12.8947 21.3302C12.8947 22.9179 13.0176 24.217 13.1679 24.217C13.8692 24.217 18.1908 19.3344 19.3062 17.2815C19.971 16.0578 20.4654 15.0083 20.4046 14.9493C20.3434 14.8907 19.6421 15.4364 18.8453 16.1624Z" fill="#707070" />
        </symbol>

    </defs>
</svg>