<svg width="645" height="550" viewBox="0 0 645 550" fill="none" xmlns="http://www.w3.org/2000/svg">
<rect width="645" height="645" transform="translate(0 -47)" fill="none"/>
<path fill-rule="evenodd" clip-rule="evenodd" d="M59.7806 175.969C85.8673 219.361 163.706 272.091 179.039 273.256C227.541 276.94 296.589 285.091 358.259 287.28L360.126 287.344C381.914 288.076 411.489 288.149 448.851 287.562C456.221 280.959 463.099 276.263 469.484 273.472L469.987 273.256C473.405 271.81 482.215 262.605 504.405 253.155C510.51 250.555 528.562 256.366 541.183 251.739L541.799 251.508C551.995 247.615 568.808 237.512 592.236 221.197C592.094 220.817 591.949 220.437 591.801 220.058C592.354 220.984 592.899 221.914 593.437 222.849C593.973 223.78 635.516 322.979 559.34 399.806C507.396 452.194 369.313 501.551 249.371 473.337C-55.6978 407.414 47.0256 154.753 59.7806 175.969Z" fill="#64FCD9"/>
<path fill-rule="evenodd" clip-rule="evenodd" d="M572.009 328.757C573.712 325.637 575.085 322.417 578.076 320.377C578.435 320.132 579.155 319.824 579.294 319.962C579.678 320.343 580.057 320.944 580.062 321.461C580.101 326.287 576.961 329.888 575.077 333.963C574.083 336.114 572.665 338.069 571.418 340.101C571.17 340.506 570.862 340.886 570.527 341.225C570.214 341.541 569.561 342.063 569.518 342.022C568.993 341.511 568.329 340.973 568.154 340.321C567.978 339.668 568.231 338.853 568.439 338.152C569.183 335.645 569.952 333.144 570.795 330.67C571.02 330.008 571.54 329.447 572.009 328.757" fill="none"/>
<path fill-rule="evenodd" clip-rule="evenodd" d="M571.509 320.92C571.267 322.496 571.263 324.025 570.914 325.471C570.392 327.639 569.744 329.794 568.936 331.871C567.996 334.288 566.896 336.65 565.732 338.969C564.965 340.496 564.012 341.94 563.039 343.35C562.697 343.846 562.045 344.126 561.54 344.513C560.463 345.337 560.194 344.024 560.2 343.731C560.255 341.066 560.117 338.406 560.92 335.762C561.506 333.831 561.458 331.714 561.795 329.698C562.023 328.34 562.458 327.017 562.751 325.668C563.191 323.645 563.564 321.607 564.008 319.585C564.766 316.14 565.565 312.729 568.976 310.739C569.659 310.34 569.976 310.343 570.663 310.79C572.213 311.799 572.867 312.963 572.458 314.85C572.033 316.816 571.87 318.839 571.509 320.92" fill="none"/>
<path fill-rule="evenodd" clip-rule="evenodd" d="M493.618 384.579C490.65 379.445 487.677 374.257 482.869 370.614C480.883 369.108 478.429 367.998 476.015 367.34C473.801 366.738 471.429 366.914 469.008 367.347C466.047 367.876 463.191 368.52 460.464 369.73C456.584 371.453 453.307 374.05 450.615 377.28C446.692 381.987 443.488 386.948 445.897 393.593C446.802 396.089 449.987 398.066 452.666 397.633C454.283 397.372 455.981 397.572 457.64 397.629C459.045 397.677 460.452 397.953 461.847 397.887C464.259 397.773 466.658 397.366 469.069 397.277C472.083 397.165 475.104 397.25 478.121 397.25C479.195 397.25 480.296 397.402 481.337 397.216C483.156 396.892 485.045 396.604 486.714 395.868C490.831 394.053 495.316 390.402 493.618 384.579Z" fill="none"/>
<path fill-rule="evenodd" clip-rule="evenodd" d="M234.049 393.559C234.049 393.559 241.147 394.213 250.19 390.645C259.232 387.077 261.486 380.594 261.486 380.594C261.486 380.594 259.545 371.295 257.71 369.114C255.781 366.819 252.161 366.698 250.19 367.629C248.344 368.501 244.553 369.269 242.001 373.285C240.658 375.399 241.448 379.399 239.249 385.605C238.429 387.919 234.049 393.559 234.049 393.559Z" fill="none"/>
<path fill-rule="evenodd" clip-rule="evenodd" d="M136.386 387.717C136.386 387.717 157.29 395.053 168.655 397.321C180.021 399.588 200.925 400.591 200.925 400.591C200.925 400.591 217.838 374.368 224.078 357.49C230.318 340.612 234.975 308.49 234.975 308.49C234.975 308.49 217.657 314.214 211.524 323.039C205.391 331.865 210.494 348.204 200.925 357.49C189.611 368.469 172.167 357.239 156.909 364.385C141.652 371.531 136.386 387.717 136.386 387.717Z" fill="none"/>
<path fill-rule="evenodd" clip-rule="evenodd" d="M209.242 456.723C232.107 458.75 314.857 430.137 333.148 410.423C338.873 404.253 344.107 391.983 338.734 385.962C322.5 367.769 251.975 343.888 265.941 311.648C270.605 300.88 299.517 293.214 299.517 293.214C299.517 293.214 304.594 290.687 305.29 289.47C305.986 288.252 303.101 286.942 303.101 286.942L333.148 287.443C333.148 287.443 332.758 294.909 328.836 297.897C317.991 306.157 305.29 306.157 303.101 318.062C300.044 334.688 330.483 358.028 346.781 366.975C388.137 389.675 400.688 411.067 545.209 396.454C526.033 408.449 475.544 438.767 400.324 454.443C277.458 480.05 190.498 455.062 209.242 456.723Z" fill="none"/>
<path fill-rule="evenodd" clip-rule="evenodd" d="M413.865 176.765C427.417 189.074 465.9 247.603 472.896 262.248C473.265 263.021 474.763 268.511 474.763 268.511C474.763 268.511 459.632 271.527 451.096 275.138C442.561 278.749 427.411 287.953 427.411 287.953C427.411 287.953 383.802 288.379 355.306 287.422C301.125 285.602 236.008 284.587 197.413 275.138C189.03 273.086 166.085 257.365 159.489 247.498C152.462 236.987 164.645 222.457 178.455 208.846C217.007 170.853 308.948 81.4725 413.865 176.765Z" fill="#FFB61D"/>
<path d="M493.311 188.877C491.215 190.034 487.628 188.875 485.659 189.902C481.682 191.977 477.712 187.974 473.553 189.462C470.897 190.412 468.292 191.319 465.529 191.622C463.591 191.835 461.702 193.091 459.778 193.147C457.111 193.226 454.919 194.598 452.829 196.364C450.883 198.01 449.129 200.035 447.225 201.77C446.541 202.394 445.69 202.873 444.869 203.042C443.65 203.292 440.67 203.194 439.429 203.269C437.251 203.403 435.075 203.666 432.898 203.669C430.719 203.672 400.216 212.372 396.72 214.657C396.466 214.822 396.185 214.918 395.917 215.046C396.061 214.79 396.178 214.497 396.353 214.285C398.027 212.255 399.519 210.939 401.441 209.442C403.984 207.463 406.81 206.014 409.621 204.729C411.835 203.716 414.204 203.256 416.516 202.624C418.571 202.063 420.63 201.481 422.709 201.129C425.198 200.707 427.707 200.372 430.214 200.276C432.275 200.196 434.362 200.808 436.406 200.595C439.408 200.282 444.13 199.681 447.071 198.838C448.166 198.524 449.376 197.45 450.026 196.255C451.316 193.883 453.113 192.395 454.995 191.398C456.711 190.489 458.747 190.611 460.638 190.249C462.398 189.911 464.156 189.555 465.91 189.168C467.412 188.836 468.952 188.634 470.393 188.039C472.304 187.249 474.119 186.073 476.009 185.181C477.005 184.71 478.126 184.66 479.093 184.124C481.62 182.727 520.014 173.295 523.875 174.918C527.737 176.541 521.809 180.887 520.014 180.708C518.189 180.526 516.328 180.876 514.488 181.082C512.408 181.315 510.305 181.464 508.265 181.989C506.279 182.5 504.338 183.359 502.418 184.219C500.46 185.095 498.549 186.147 496.625 187.147C495.568 187.697 494.526 188.299 493.311 188.877Z" fill="none"/>
<path d="M393.614 212.497C392.751 209.482 395.23 208.094 396.747 205.981C400.114 201.291 404.868 198.304 410.035 195.949C412.277 194.927 414.542 193.912 416.883 193.166C419.695 192.27 422.6 191.665 425.465 190.931C425.865 190.829 426.257 190.644 426.661 190.612C427.749 190.525 428.795 189.628 428.959 189.522C429.602 189.104 430.299 188.465 430.519 187.764C431.038 186.111 431.21 184.352 431.677 182.679C432.527 179.631 434.895 177.906 437.54 176.625C440.787 175.051 444.12 173.647 447.458 172.274C451.66 170.546 455.913 168.944 460.13 167.252C464.06 165.675 467.897 163.817 471.923 162.549C473.892 161.929 476.194 162.366 478.346 162.34C478.425 162.339 478.506 162.498 478.586 162.583C478.445 162.696 478.32 162.861 478.159 162.915C473.85 164.37 469.512 165.742 465.234 167.282C462.283 168.345 459.428 169.673 456.503 170.811C455.28 171.286 453.937 171.464 452.731 171.971C450.206 173.035 447.75 174.263 445.236 175.355C443.387 176.158 441.441 176.75 439.626 177.619C437.168 178.797 434.588 179.986 433.78 182.936C433.48 184.034 433.904 185.37 433.488 186.389C432.907 187.809 432.068 189.279 430.946 190.292C428.635 192.376 425.682 193.267 422.674 193.949C420.843 194.364 419.071 195.069 417.229 195.402C413.515 196.074 410.105 197.531 406.833 199.293C402.316 201.726 397.895 204.365 395.439 208.886C394.773 210.112 394.495 211.547 394.022 212.88C393.972 213.023 393.809 213.127 393.698 213.249C393.698 213.026 393.697 212.803 393.614 212.497Z" fill="none"/>
<path d="M390.806 210.83C390.617 209.974 390.405 209.199 390.43 208.431C390.48 206.847 390.508 205.238 390.808 203.689C391.944 197.821 396.14 194.137 400.34 190.413C403.871 187.281 407.514 184.214 409.666 179.827C410.505 178.118 410.392 176.439 410.347 174.598C410.238 170.225 407.841 167.166 404.846 164.641C401.775 162.052 398.287 159.94 394.9 157.745C390.666 155.003 387.065 151.731 384.766 147.134C383.39 144.383 384.075 138.918 386.347 136.815C386.897 136.306 387.769 135.907 388.5 135.895C389.338 135.88 389.746 136.633 389.548 137.529C389.507 137.714 389.415 137.992 389.281 138.037C387.479 138.648 385.723 143.266 386.956 145.016C387.848 146.282 388.17 148.013 389.205 149.1C391.247 151.247 393.559 153.149 395.847 155.047C399.676 158.223 403.684 161.192 407.406 164.486C410.191 166.95 412.188 170.171 412.981 173.79C413.381 175.618 413.023 177.776 412.151 179.649C410.377 183.458 407.61 186.399 404.434 189.116C400.676 192.33 396.52 195.271 394.129 199.76C393.056 201.775 392.33 204.083 391.981 206.34C391.71 208.098 392.281 209.983 392.44 211.814C392.463 212.073 392.276 212.349 392.186 212.617C391.976 212.457 391.711 212.336 391.568 212.129C391.304 211.75 391.111 211.321 390.806 210.83Z" fill="none"/>
<path fill-rule="evenodd" clip-rule="evenodd" d="M352.936 241.671V287.036L402.85 288.662H417.305V243.532H421.715L402.552 230.346C402.552 230.346 402.552 225.213 402.14 221.335C401.158 219.317 398.196 218.976 396.278 218.612C394.359 218.248 391.514 217.8 391.514 219.317C391.514 220.834 391.514 225.213 391.514 225.213L378.522 223.215L352.936 241.671Z" fill="none"/>
<path fill-rule="evenodd" clip-rule="evenodd" d="M394.126 288.377L402.85 288.662L400.27 239.179L394.898 235.236L394.126 288.377Z" fill="#E7EAEE"/>
<path fill-rule="evenodd" clip-rule="evenodd" d="M360.466 318.836C360.838 317.986 361.686 316.995 361.484 316.315C361.068 314.916 360.379 313.333 359.296 312.442C354.538 308.525 349.474 305.142 343.229 303.873C339.924 303.201 336.933 303.595 334.037 305.17C331.888 306.34 331.708 308.127 333.561 309.601C334.561 310.396 335.562 311.19 336.584 311.955C340.93 315.211 345.747 317.509 351.01 318.811C352.999 319.303 355.052 319.649 357.093 319.776C358.142 319.842 359.229 319.281 360.466 318.836" fill="none"/>
<path fill-rule="evenodd" clip-rule="evenodd" d="M375.152 225.43C370.652 225.315 343.983 245.5 343.388 245.16C342.793 244.819 368.791 225.183 372.563 222.561C374.52 221.201 376.55 221.274 378.604 222.724C381.467 224.746 399.196 236.01 401.583 237.134C404.328 238.425 420.674 242.195 419.825 243.236C419.342 243.511 416.927 243.727 416.194 243.629C415.983 243.601 415.561 243.791 415.537 243.932C414.802 248.311 416.036 283.718 416.207 285.5C416.239 285.831 416.576 286.224 416.88 286.422C418.121 287.228 419.49 287.137 420.91 287.192L421.147 287.203C423.646 287.333 425.909 286.809 428.021 285.713C430.779 284.284 433.415 282.619 436.087 281.029C438.899 279.356 441.676 277.626 444.497 275.97C448.4 273.68 452.656 272.166 456.883 270.643C459.444 269.72 462.166 269.214 464.842 268.644C467.159 268.15 469.513 267.829 471.852 267.434L471.906 267.429L474.199 267.486C473.865 266.79 473.562 266.078 473.193 265.402C471.909 263.052 470.542 260.745 469.321 258.363C467.883 255.556 466.673 252.63 465.174 249.858C461.805 243.631 458.349 237.45 454.874 231.282C451.571 225.419 448.201 219.595 444.851 213.759C444.411 212.992 443.904 212.263 443.456 211.5C443.342 211.306 443.337 211.047 443.282 210.818C443.479 210.967 443.726 211.078 443.864 211.269C445.526 213.578 447.26 215.841 448.806 218.226C453.176 224.963 457.551 231.7 461.757 238.54C463.972 242.141 465.847 245.952 467.86 249.677C469.254 252.254 470.654 254.828 471.988 257.436C472.671 258.771 473.213 260.177 473.819 261.551L474.804 263.8C475.298 264.925 475.8 266.045 476.34 267.146C476.456 267.382 477.211 267.537 477.534 267.403C481.161 265.894 484.908 264.586 488.336 262.704C493.795 259.708 498.961 256.181 504.405 253.155C506.909 251.763 509.711 250.747 512.502 250.089C514.418 249.637 516.394 249.3 518.616 249.818C522.22 250.659 525.504 252.227 528.981 253.298C531.339 254.024 533.784 254.108 536.333 253.912C541.224 253.536 544.954 250.675 549.095 248.69C551.837 247.376 554.485 245.864 557.165 244.422C563.127 241.215 569.075 237.981 575.043 234.786C578.642 232.859 582.268 230.984 585.881 229.086C586.246 228.894 586.596 228.657 586.982 228.525L587.374 228.391C587.722 228.277 588.092 228.183 588.217 228.306L588.35 228.442C588.976 229.1 589.307 229.802 588.04 230.436C585.229 231.844 582.458 233.334 579.682 234.812C576.076 236.732 572.487 238.685 568.88 240.603C565.412 242.446 561.924 244.251 558.456 246.095C554.804 248.038 551.17 250.016 547.519 251.961C545.198 253.196 542.977 254.859 540.498 255.485C538.244 256.055 535.968 257.144 533.353 256.328L533.082 256.236C529.864 255.078 526.37 254.708 523.098 253.675C520.493 252.852 517.851 252.29 515.202 252.5C512.146 252.743 509.036 253.234 506.124 254.164C501.44 255.66 497.48 258.564 493.583 261.524L492.436 262.392C489.118 264.893 485.717 267.281 481.614 268.438C480.556 268.736 479.508 269.077 478.477 269.457C478.398 269.486 466.877 269.83 454.459 274.134C442.669 278.221 429.947 286.279 429.98 286.36C430.843 288.527 486.605 284.646 487.931 284.764C489.569 284.909 491.211 285.005 492.852 285.1C493.461 285.135 494.076 285.075 494.685 285.111C496.271 285.205 497.854 285.339 499.44 285.433C500.049 285.469 500.664 285.409 501.273 285.444C502.914 285.539 504.553 285.672 506.194 285.766C506.804 285.802 507.419 285.742 508.028 285.778C509.613 285.872 511.197 286.004 512.782 286.1C513.336 286.134 513.895 286.079 514.449 286.111C516.091 286.205 517.731 286.331 519.374 286.427C519.926 286.459 520.484 286.412 521.037 286.444C522.734 286.542 524.428 286.67 526.125 286.767C526.679 286.799 527.238 286.745 527.792 286.778C529.433 286.873 531.073 287.001 532.715 287.097C533.268 287.129 533.826 287.079 534.38 287.111C536.076 287.209 537.771 287.337 539.468 287.434C540.022 287.466 540.579 287.439 541.135 287.439C542.543 287.439 543.953 287.405 545.359 287.454C546.039 287.478 546.709 287.709 547.39 287.764C549.139 287.903 550.892 288.002 552.644 288.102C553.142 288.13 553.645 288.082 554.144 288.111C555.84 288.21 557.535 288.336 559.231 288.435C559.605 288.457 559.981 288.449 560.356 288.443L560.732 288.44C562.085 288.44 563.442 288.369 564.789 288.455C567.498 288.627 570.199 288.918 572.908 289.097C575.323 289.256 577.744 289.322 580.162 289.442C582.192 289.543 584.22 289.671 586.25 289.771L589.152 289.92C590.602 289.992 592.053 290.059 593.505 290.097C596.221 290.169 598.94 290.159 601.657 290.205C601.816 290.208 602.098 290.381 602.109 290.495C602.183 291.309 602.202 292.128 602.239 292.945C601.808 292.888 601.377 292.801 600.944 292.78C598.507 292.658 596.066 292.602 593.633 292.426C591.589 292.278 589.559 291.906 587.514 291.799C585.37 291.688 583.216 291.793 581.066 291.759C580.61 291.752 580.163 291.498 579.703 291.45L576.727 291.126C575.403 290.986 574.079 290.861 572.752 290.799C570.385 290.687 568.008 290.811 565.637 290.755C564.748 290.733 563.867 290.455 562.975 290.367C562.268 290.297 561.549 290.365 560.838 290.324C560.064 290.28 559.293 290.176 558.52 290.108C555.981 289.883 553.446 289.569 550.902 289.465C548.145 289.354 545.38 289.48 542.62 289.421C541.509 289.397 540.404 289.15 539.295 289.016C538.551 288.925 537.807 288.835 537.06 288.777C535.476 288.653 533.892 288.541 532.306 288.445C531.752 288.412 531.193 288.465 530.639 288.435C528.832 288.336 527.026 288.175 525.218 288.124C524.308 288.099 523.392 288.34 522.481 288.323C520.989 288.297 519.5 288.137 518.008 288.075C517.035 288.035 516.057 288.112 515.085 288.058C513.37 287.962 511.66 287.776 509.944 287.684C508.901 287.628 507.852 287.696 506.806 287.67C506.02 287.651 505.235 287.519 504.452 287.533C503.959 287.542 503.47 287.729 502.979 287.835C503.257 288.071 503.53 288.312 503.812 288.542C506.843 291.019 509.849 293.526 512.913 295.961C516.372 298.712 519.903 301.373 523.365 304.119C526.387 306.517 529.354 308.984 532.353 311.411C533.347 312.214 534.367 312.986 535.376 313.771C535.992 314.249 535.908 314.504 535.252 314.76L535.154 314.796C532.932 315.599 530.775 316.608 528.514 317.265C526.506 317.849 524.388 318.047 522.327 318.457C520.5 318.819 518.697 319.309 516.861 319.606C515.699 319.794 514.495 319.708 513.313 319.791C512.226 319.868 511.137 319.964 510.061 320.127C508.431 320.375 506.82 320.763 505.185 320.95C503.79 321.109 502.371 321.042 500.966 321.126C499.768 321.197 498.568 321.294 497.38 321.462C495.64 321.707 493.919 322.104 492.174 322.289C490.667 322.45 489.133 322.35 487.619 322.467C486.007 322.59 484.407 322.875 482.795 323.014C480.652 323.198 478.502 323.294 476.358 323.462C475.787 323.507 475.23 323.743 474.66 323.774C472.113 323.912 469.563 323.99 467.016 324.129C466.169 324.175 465.332 324.387 464.485 324.443C462.402 324.582 460.318 324.729 458.231 324.775C451.979 324.915 445.726 325.053 439.473 325.098C436.852 325.116 434.224 324.738 431.61 324.834C429.329 324.917 427.113 324.846 424.844 324.517C422.738 324.212 420.547 324.558 418.406 324.419C416.656 324.306 414.929 323.876 413.185 323.634C411.109 323.346 409.023 323.127 406.948 322.825C406.686 322.787 406.227 322.342 406.265 322.243L406.61 321.365C407.711 318.588 408.924 315.878 410.889 313.533C413.311 310.645 416.186 308.366 419.423 306.513L419.866 306.264C421.055 305.604 422.229 304.905 423.466 304.35L425.323 303.511C426.77 302.862 428.23 302.239 429.737 301.782C432.161 301.046 434.691 300.663 437.171 300.106C438.575 299.791 439.957 299.371 441.37 299.111C443.467 298.725 445.588 298.471 447.688 298.099C449.265 297.82 450.835 297.486 452.389 297.099C454.45 296.586 456.508 296.052 458.538 295.431C462.781 294.133 466.939 292.63 470.545 289.931C470.735 289.789 470.958 289.692 471.165 289.574C470.896 289.418 470.643 289.209 470.353 289.123C470.098 289.046 469.802 289.107 469.524 289.107L466.079 289.11C465.505 289.11 464.93 289.109 464.356 289.105L436.499 288.934C427.214 288.878 417.928 288.827 408.642 288.791C404.854 288.777 401.065 289.094 397.277 289.083C392.098 289.067 386.92 288.897 381.743 288.769C378.176 288.68 374.611 288.498 371.044 288.462C369.257 288.444 367.467 288.77 365.68 288.751C361.669 288.71 357.658 288.565 353.648 288.435C351.025 288.35 348.405 288.142 345.783 288.13C343.718 288.121 341.652 288.406 339.586 288.416C337.91 288.424 336.232 288.147 334.556 288.164C334.207 288.168 333.487 289.08 333.579 289.286C334.692 291.764 333.331 293.748 332.133 295.538C329.767 299.071 326.376 301.31 322.259 302.542C319.886 303.252 317.582 304.202 315.27 305.112L314.402 305.451C309.954 307.171 306.395 309.85 305.086 314.697C304.425 317.149 304.025 319.585 304.397 322.241C305.219 328.1 308.097 332.774 311.905 337.01L312.186 337.319C314.264 339.592 316.288 341.941 318.572 343.994C323.232 348.185 327.934 352.347 332.839 356.244C337.634 360.053 342.589 363.688 347.687 367.08C352.082 370.003 356.746 372.529 361.348 375.129C364.308 376.802 367.331 378.376 370.4 379.838C372.978 381.066 375.676 382.038 378.296 383.18C380.612 384.19 382.851 385.388 385.202 386.304C388.451 387.57 391.753 388.71 395.07 389.79C398.066 390.765 401.092 391.661 404.14 392.453C406.749 393.131 409.417 393.576 412.044 394.188C415.435 394.978 418.8 395.885 422.198 396.641C424.777 397.214 427.384 397.668 429.99 398.106C432.342 398.501 434.706 398.831 437.071 399.136C439.124 399.401 441.182 399.63 443.245 399.8C445.233 399.965 447.233 399.992 449.221 400.157C451.264 400.326 453.296 400.632 455.34 400.794C456.308 400.87 457.292 400.721 458.268 400.726C460.442 400.738 462.617 400.749 464.789 400.824C466.134 400.871 467.475 401.115 468.819 401.13C472.598 401.174 476.377 401.146 480.156 401.146C482.009 401.146 483.867 401.232 485.714 401.122C487.74 401.002 489.799 400.334 491.763 400.573C494.157 400.863 496.395 400.512 498.7 400.172C499.752 400.016 500.854 400.229 501.919 400.129C504.991 399.841 508.051 399.409 511.126 399.166C513.796 398.954 516.485 398.976 519.159 398.789C520.539 398.693 521.899 398.324 523.277 398.157C524.652 397.99 526.044 397.967 527.419 397.799C528.868 397.621 530.319 397.41 531.745 397.102C534.577 396.489 537.416 395.886 540.208 395.115C542.25 394.551 544.22 393.723 546.226 393.026C546.351 392.983 546.594 393.014 546.647 393.097C546.716 393.205 546.716 393.463 546.634 393.547C545.43 394.779 544.276 396.076 542.955 397.169C542.558 397.497 541.937 397.591 541.337 397.654L540.808 397.708C539.092 397.896 537.351 397.904 535.649 398.172C533.922 398.445 532.246 399.038 530.519 399.313C528.768 399.592 526.982 399.644 525.213 399.816C524.348 399.901 523.485 400.015 522.626 400.149C520.557 400.471 518.498 400.869 516.421 401.13C514.131 401.419 511.823 401.575 509.526 401.818C508.187 401.961 506.858 402.209 505.517 402.327C503.269 402.524 501.015 402.64 498.765 402.822C498.14 402.873 497.527 403.078 496.901 403.139L494.42 403.383C492.765 403.544 491.109 403.695 489.451 403.794C487.771 403.894 486.078 403.777 484.393 403.821C481.16 403.905 477.927 404.128 474.695 404.122C470.998 404.116 467.299 403.976 463.606 403.796C460.785 403.659 457.975 403.309 455.154 403.166C453.12 403.063 451.072 403.231 449.04 403.12C447.383 403.028 445.742 402.667 444.088 402.49C442.6 402.33 441.102 402.272 439.612 402.14C438.691 402.059 437.768 401.967 436.86 401.801C435.768 401.601 434.693 401.305 433.607 401.072C432.617 400.859 431.624 400.652 430.626 400.484C428.802 400.176 426.977 399.87 425.145 399.619C423.659 399.416 422.149 399.369 420.674 399.112C419.438 398.896 418.239 398.472 417.022 398.145L411.248 396.595C410.285 396.338 409.322 396.083 408.358 395.831C405.68 395.131 402.958 394.573 400.317 393.753C396.419 392.544 392.576 391.158 388.709 389.849C385.686 388.825 382.63 387.887 379.648 386.755L378.348 386.259C376.181 385.424 374.023 384.538 372.002 383.423L365.129 379.645C359.403 376.491 353.699 373.296 348.158 369.843C342.305 366.196 336.865 361.876 331.307 357.766C325.166 353.226 319.8 347.812 314.548 342.309L313.743 341.459C310.003 337.478 306.512 333.266 304.178 328.255L303.932 327.715C303.093 325.824 301.964 323.835 301.916 321.867C301.808 317.463 302.626 313.222 305.922 309.773C308.534 307.039 311.7 305.238 314.948 303.54L317.073 302.439C320.88 300.464 324.721 298.543 328.425 296.389C329.74 295.624 330.89 294.375 331.763 293.104C332.719 291.713 331.892 289.847 330.208 289.476C327.315 288.837 324.39 288.259 321.447 287.951C317.387 287.526 313.3 287.36 309.222 287.131C308.868 287.111 308.314 287.347 308.157 287.632C305.987 291.573 302.584 294.021 298.44 295.405C295.229 296.478 291.888 297.155 288.641 298.131C286.214 298.861 283.887 299.947 281.44 300.586C278.161 301.442 275.3 303.118 272.769 305.173L272.045 305.77C268.931 308.381 266.149 311.356 265.371 315.689C264.791 318.919 264.953 321.977 265.919 325.201C267.32 329.878 270.204 333.417 273.375 336.847C274.958 338.559 276.642 340.181 278.319 341.805C283.498 346.823 289.1 351.312 294.962 355.525C301.871 360.491 309.166 364.733 316.718 368.624L318.497 369.533C322.852 371.749 327.232 373.962 331.052 377.119C334.116 379.653 336.899 382.435 338.734 385.962L339.337 387.126C340.292 388.998 341.193 390.988 341.247 392.931L341.278 394.054C341.317 395.82 341.287 397.67 340.742 399.533C338.842 406.034 334.614 410.793 329.883 415.175C325.035 419.665 319.618 423.446 313.818 426.655C311.456 427.962 309.191 429.462 306.768 430.64C304.449 431.768 301.971 432.563 299.584 433.554C296.849 434.69 294.187 436.026 291.401 437.012C287.451 438.409 283.412 439.555 279.418 440.83C276.867 441.645 274.35 442.577 271.778 443.319C268.623 444.23 265.419 444.968 262.252 445.838C260.179 446.408 258.153 447.153 256.073 447.689C253.465 448.361 250.816 448.869 248.198 449.504C245.678 450.116 243.189 450.862 240.661 451.433C237.462 452.157 234.241 452.781 231.023 453.415C228.155 453.979 225.28 454.51 222.404 455.033C219.849 455.498 217.287 455.928 214.729 456.379C214.04 456.501 213.35 456.748 212.67 456.721C212.379 456.71 212.135 456.116 211.824 455.838C211.385 455.445 210.904 455.098 210.44 454.732C211.081 454.654 211.73 454.619 212.36 454.489C214.456 454.057 216.538 453.552 218.64 453.145C221.103 452.669 223.59 452.313 226.049 451.814C227.828 451.452 229.566 450.889 231.342 450.509C233.669 450.012 236.027 449.663 238.348 449.143C240.044 448.764 241.693 448.175 243.38 447.748C244.614 447.437 245.893 447.299 247.122 446.975C249.171 446.434 251.184 445.757 253.236 445.231C255.289 444.704 257.385 444.345 259.436 443.812C261.586 443.253 263.692 442.528 265.84 441.962C268.303 441.312 270.808 440.813 273.263 440.137C274.712 439.738 276.082 439.059 277.522 438.619C279.995 437.863 282.529 437.298 284.975 436.467C288.526 435.26 292.027 433.9 295.539 432.581L297.929 431.684C299.521 431.083 301.108 430.471 302.676 429.812C310.337 426.591 317.603 422.669 324.06 417.383L325.592 416.126C327.633 414.446 329.653 412.735 331.521 410.877C334.219 408.193 336.558 405.145 337.875 401.527C338.646 399.406 339.323 397.129 339.38 394.905C339.434 392.826 338.837 390.743 338.026 388.652C336.858 385.637 335.125 383.179 332.726 381.326C329.468 378.81 325.937 376.622 322.403 374.492C314.498 369.729 306.34 365.361 298.63 360.305C293.445 356.905 288.708 352.806 283.898 348.851L282.995 348.111C279.839 345.536 276.729 342.867 273.878 339.965C269.938 335.955 266.204 331.781 264.054 326.382C262.99 323.709 262.643 321.123 262.76 318.311C263.021 312.091 266.555 307.893 270.965 304.061C275.16 300.417 280.113 298.383 285.303 296.793C288.503 295.813 291.766 295.037 294.979 294.096C297.751 293.285 300.527 292.461 303.227 291.444C304.064 291.129 304.999 290.285 305.29 289.469C305.898 287.769 304.946 286.947 303.101 286.942C301.58 286.937 300.063 286.576 298.538 286.45C296.66 286.294 294.769 286.281 292.896 286.086C291.199 285.91 289.528 285.492 287.831 285.327C286.107 285.159 284.366 285.181 282.633 285.096C282.329 285.081 282.035 284.902 281.729 284.878C279.696 284.719 277.656 284.629 275.627 284.424C273.816 284.241 272.021 283.881 270.209 283.705C268.546 283.543 266.869 283.523 265.198 283.436C264.985 283.425 264.772 283.392 264.559 283.372C262.436 283.171 260.309 283.011 258.193 282.759C256.39 282.545 254.607 282.155 252.802 281.974C251.187 281.813 249.555 281.836 247.931 281.766C247.67 281.755 247.413 281.662 247.152 281.64C245.021 281.457 242.885 281.312 240.757 281.094C239.047 280.919 237.35 280.616 235.639 280.449C233.93 280.282 232.209 280.23 230.497 280.092C230.092 280.059 229.704 279.81 229.299 279.782C227.308 279.644 225.307 279.618 223.324 279.416C221.576 279.238 219.854 278.801 218.106 278.625C216.49 278.462 214.854 278.508 213.228 278.423C212.881 278.404 212.547 278.139 212.198 278.115C210.151 277.979 208.101 277.894 206.054 277.761C205.438 277.721 204.83 277.556 204.213 277.517C204.085 277.509 203.938 277.807 203.799 277.964L204.094 278.061C204.143 278.076 204.192 278.09 204.243 278.101C205.959 278.478 207.691 278.796 209.39 279.238C211.409 279.763 213.432 280.3 215.397 280.993C222.338 283.44 228.881 286.65 233.581 292.523C235.358 294.745 236.504 297.505 237.742 300.113C238.391 301.48 238.874 303.032 238.971 304.53C239.123 306.87 238.89 309.235 238.806 311.589C238.752 313.094 238.753 314.608 238.58 316.1C238.414 317.544 238.075 318.969 237.779 320.396L236.969 324.329C236.562 326.295 236.146 328.259 235.695 330.215C235.34 331.753 234.723 333.229 234.331 334.76C233.931 336.326 233.707 337.936 233.32 339.506C232.873 341.318 232.31 343.102 231.839 344.909C231.322 346.892 230.897 348.899 230.349 350.873L230.025 352.029C229.696 353.185 229.344 354.336 228.903 355.447L228.675 355.999C228.36 356.731 228.48 356.761 228.988 356.795L229.152 356.806C232.182 357.023 235.233 357.114 238.229 357.562C240.455 357.896 242.611 358.701 244.794 359.309C246.538 359.795 248.277 360.3 250.017 360.8C250.165 360.842 250.306 360.907 250.45 360.961C250.31 361.018 250.17 361.123 250.029 361.124C248.657 361.137 247.272 361.25 245.916 361.105C243.69 360.866 241.461 360.56 239.277 360.081C237.712 359.739 236.239 358.994 234.686 358.576C233.945 358.376 233.1 358.423 232.323 358.523L231.224 358.663C229.941 358.829 228.657 359.016 227.422 359.364C225.392 359.937 224.404 361.64 223.504 363.334L223.205 363.897C220.635 368.727 218.162 373.609 215.62 378.453C212.763 383.895 209.871 389.318 206.999 394.752L206.767 395.203C205.745 397.25 204.947 399.469 202.756 400.641C202.293 400.888 201.632 400.765 201.063 400.812C201.116 400.384 201.045 399.885 201.241 399.538C203.332 395.842 205.472 392.174 207.586 388.492C209.52 385.125 211.522 381.795 213.345 378.371C216.13 373.142 218.908 367.903 221.46 362.559C223.421 358.451 225.069 354.192 226.78 349.969L227.854 347.32C229.107 344.23 230.341 341.13 231.406 337.974C232.634 334.335 233.535 330.582 234.523 326.865C235.111 324.652 235.78 322.435 236.073 320.176L236.269 318.659C236.693 315.367 237.078 312.051 237.017 308.756C236.963 305.882 236.389 302.879 235.37 300.191C233.172 294.395 229.104 289.99 223.807 286.787C220.319 284.677 216.674 282.922 212.628 282.059C210.364 281.577 208.198 280.642 205.936 280.149C204.032 279.734 202.055 279.503 200.107 279.475C197.357 279.435 194.605 279.69 191.852 279.76C189.814 279.812 187.77 279.693 185.737 279.799C184.524 279.863 183.325 280.215 182.12 280.437C180.312 280.77 178.479 281.008 176.699 281.457C173.002 282.391 169.246 283.196 165.669 284.486C156.475 287.801 147.851 292.313 139.837 297.903C134.408 301.69 129.339 305.957 124.863 310.856C120.049 316.124 115.913 321.885 113.101 328.485C112.008 331.05 111.14 333.723 110.338 336.397C109.769 338.293 109.244 340.26 109.132 342.22C108.992 344.679 109.312 347.163 109.398 349.638C109.441 350.897 109.319 352.167 109.43 353.418C109.536 354.597 109.761 355.783 110.093 356.92C110.565 358.531 111.166 360.105 111.742 361.684C114.919 370.384 120.356 377.152 128.765 381.278C130.669 382.212 132.729 382.897 134.788 383.422C136.176 383.776 137.432 383.375 138.261 381.839C141.527 375.787 145.811 370.576 151.626 366.802C154.578 364.887 157.686 363.209 160.751 361.473C163.307 360.027 166.096 359.279 168.979 358.775C170.749 358.465 172.461 357.702 174.232 357.558C176.236 357.395 178.277 357.698 180.301 357.796L180.802 357.798C183.887 357.908 186.979 358.202 190.055 358.077C192.856 357.963 195.56 357.433 198.274 356.287C202.188 354.635 204.168 351.832 205.167 348.044L205.792 345.576C206.159 344.115 206.506 342.65 206.728 341.167C206.97 339.558 206.64 337.865 206.858 336.249C207.161 333.991 207.597 331.728 208.239 329.544C208.724 327.891 209.539 326.338 210.214 324.738L210.434 324.203C211.818 320.712 214.204 317.89 216.809 315.338C219.889 312.321 223.403 309.814 227.596 308.435C229.238 307.895 230.828 307.197 232.463 306.631C232.71 306.545 233.069 306.785 233.377 306.875L233.016 307.114C232.955 307.153 232.894 307.191 232.832 307.227L231.727 307.871C226.024 311.203 220.415 314.674 216.02 319.741L215.58 320.25C213.903 322.207 212.322 324.244 211.681 326.885C211.244 328.687 210.249 330.372 209.949 332.184C209.552 334.584 209.603 337.056 209.429 339.495C209.392 340.01 209.179 340.51 209.113 341.026C208.857 343.019 208.917 345.106 208.329 346.992C207.073 351.02 204.973 354.614 201.149 356.764C199.082 357.927 196.909 359.074 194.637 359.649C192.607 360.163 190.412 360.093 188.272 360.109L187.815 360.114C183.684 360.175 179.552 360.098 175.421 360.139C170.045 360.193 164.748 360.974 159.874 363.258C154.19 365.921 149.125 369.497 145.145 374.517C142.557 377.781 140.213 381.147 138.966 385.137C138.443 386.81 137.051 386.478 136.196 386.324L135.315 386.162C133.254 385.771 131.167 385.271 129.327 384.353C126.377 382.881 123.488 381.132 120.93 379.06C116.479 375.457 112.808 371.065 110.589 365.736C109.151 362.283 107.957 358.662 107.232 355.002C106.729 352.464 107.15 349.758 107.062 347.124L107.037 346.598C106.877 344.023 107.305 341.567 107.919 339.115L108.037 338.655C108.849 335.523 109.346 332.27 110.524 329.285C111.61 326.534 113.251 323.997 114.761 321.42L115.083 320.868C118.182 315.486 122.14 310.757 126.593 306.474C132.357 300.931 138.762 296.195 145.642 292.114L148.446 290.445C150.319 289.336 152.204 288.25 154.143 287.274C156.339 286.169 158.658 285.304 160.959 284.414L161.725 284.116C163.719 283.335 165.732 282.589 167.774 281.943C170.598 281.05 173.447 280.23 176.306 279.449C178.313 278.901 180.333 278.361 182.381 278.019C184.872 277.602 187.402 277.433 189.906 277.091C191.952 276.812 193.985 276.438 196.023 276.097C196.162 276.074 196.289 275.982 196.422 275.922C196.276 275.871 196.127 275.767 195.986 275.777C194.586 275.875 193.185 276.109 191.789 276.076C189.46 276.021 187.135 275.804 184.809 275.64C184.335 275.607 183.867 275.448 183.395 275.445C180.82 275.425 178.243 275.474 175.669 275.421C174.157 275.39 172.65 275.148 171.138 275.116C168.62 275.063 166.098 275.141 163.579 275.087C162.068 275.055 160.56 274.816 159.049 274.783C157.078 274.74 155.106 274.756 153.135 274.765L151.656 274.768C149.192 274.768 146.723 274.854 144.264 274.742C142.183 274.647 140.117 274.233 138.035 274.134C136.7 274.071 135.348 274.437 134.008 274.41C131.617 274.363 129.23 274.129 126.839 274.043C125.422 273.992 123.998 274.14 122.583 274.081C120.2 273.982 117.821 273.795 115.442 273.63C114.967 273.598 114.497 273.446 114.024 273.444C111.115 273.426 108.206 273.471 105.298 273.42C103.786 273.393 102.279 273.147 100.767 273.116C98.1926 273.063 95.6163 273.101 93.0409 273.101L87.7788 273.101C86.9018 273.102 86.0247 273.105 85.1477 273.109C84.9002 273.11 84.6532 273.219 84.406 273.277L84.8662 273.509C84.9424 273.549 85.018 273.589 85.0923 273.632C90.4205 276.702 95.2553 280.404 99.4033 284.956C102.18 288.002 104.717 291.237 106.235 295.126C106.946 296.947 107.65 298.793 108.086 300.69C108.35 301.839 107.98 303.118 108.099 304.319C108.257 305.905 107.964 307.388 107.395 308.824C105.641 313.253 102.661 316.615 98.616 319.145C95.8808 320.856 93.0153 322.197 89.866 322.774C87.4069 323.225 84.8933 323.464 82.3937 323.584C80.1633 323.691 77.9053 323.64 75.685 323.411C73.7882 323.216 71.9357 322.623 70.0487 322.29C68.0297 321.934 65.986 321.718 63.9672 321.361C62.6741 321.133 61.4167 320.705 60.1254 320.462C57.4133 319.952 54.6813 319.546 51.9738 319.014C50.6446 318.753 49.3565 318.288 48.0413 317.949L47.3741 317.776C46.9276 317.662 46.4781 317.558 46.0266 317.504L45.6876 317.472C44.5881 317.404 43.9355 316.462 44.4013 315.413C44.4235 315.363 44.7249 315.41 44.8855 315.453C46.2544 315.814 47.6177 316.197 48.9886 316.55L52.333 317.413C53.4485 317.697 54.5654 317.976 55.6857 318.24C58.461 318.894 61.2404 319.537 64.0347 320.103C65.7145 320.443 67.4094 320.718 69.1071 320.963L71.4573 321.292C73.012 321.509 74.5715 321.709 76.1322 321.748C78.2686 321.801 80.4111 321.53 82.5529 321.462C84.201 321.409 85.8575 321.532 87.5 321.423C88.604 321.349 89.7396 321.141 90.7741 320.758C93.2532 319.84 95.7188 318.866 98.1199 317.762C101.044 316.418 103.193 314.044 105.219 311.666C105.93 310.832 105.949 309.294 105.974 308.071C105.98 307.764 104.823 307.301 104.145 307.136C101.189 306.413 98.1916 305.852 95.2501 305.077C92.9132 304.461 90.6473 303.581 88.328 302.892C86.6129 302.382 84.8504 302.032 83.1308 301.536C80.5472 300.79 79.0113 298.611 79.2121 296.098C79.215 296.062 79.0986 296.011 79.1052 295.982C79.4939 294.293 78.7113 293.893 76.6557 294.294C74.8294 294.65 72.9281 294.612 71.0631 294.783C70.0939 294.871 69.12 294.98 68.1686 295.178C65.8711 295.655 63.6024 296.492 61.2906 296.621C58.8072 296.76 56.2896 296.176 54.2794 294.479C52.2031 292.727 50.1995 290.887 48.1825 289.065C46.6797 287.708 45.2036 286.321 43.7224 284.94C43.4916 284.724 43.2968 284.471 43.0853 284.235C43.4974 284.227 44.0447 284.043 44.2996 284.239C46.029 285.569 47.8942 286.801 49.3378 288.405L50.405 289.592C52.1923 291.558 54.0662 293.402 56.677 294.136C58.7492 294.719 61.0287 294.786 63.2037 294.718C65.2622 294.652 67.3227 294.188 69.3496 293.748C70.6275 293.471 71.9025 293.087 73.1151 292.589L73.5668 292.397C75.8822 291.379 78.5165 291.557 80.3222 293.294L80.9384 293.919C81.5362 294.536 82.1276 295.265 81.9423 296.288L81.9065 296.452C81.839 296.716 81.8704 297.03 81.7379 297.249L81.4043 297.81C80.8456 298.783 80.963 298.927 82.2027 299.316L82.6087 299.442C85.1755 300.228 87.7278 301.07 90.3207 301.759C93.1568 302.512 96.0479 303.059 98.8848 303.81C100.89 304.341 102.848 305.051 104.82 305.702C105.633 305.971 106.657 305.021 106.724 303.791C106.788 302.589 106.96 301.328 106.684 300.189C106.293 298.571 105.763 296.901 104.895 295.498C101.207 289.534 96.9332 283.995 91.7028 279.3C88.4603 276.39 78.6956 271 71.037 269.39C63.3785 267.781 51.3359 268.69 48.9886 270.056C46.6413 271.422 43.1167 272.995 41.551 273.41C41.4158 273.446 41.1049 273.278 41.0653 273.147C40.6189 271.67 41.7086 270.976 42.6974 270.464C45.0311 269.257 47.4223 268.15 49.8381 267.114C53.0223 265.749 56.4889 265.572 59.8554 265.192C61.6843 264.985 63.6283 265.696 65.5072 266.062C67.3624 266.422 69.2249 266.786 71.037 267.311C72.0141 267.594 72.8957 268.212 73.8148 268.69C77.4651 270.588 80.9827 270.504 84.4961 268.227C85.6068 267.507 87.0497 267.322 88.2527 266.718C93.5153 264.073 98.7504 261.373 103.986 258.676C109.087 256.048 114.176 253.399 119.272 250.761C119.92 250.426 120.59 250.129 121.212 249.752C121.314 249.689 121.32 249.178 121.204 249.087C118.779 247.181 116.358 245.269 113.881 243.432C108.914 239.747 103.841 236.2 98.9566 232.409C96.2917 230.34 93.7799 228.025 91.4524 225.58C86.3273 220.196 81.4617 214.564 76.3032 209.213C71.7828 204.524 67.052 200.033 62.2806 195.598C61.7589 195.114 59.9632 195.164 59.4268 195.672C56.8428 198.119 54.4863 200.807 52.0545 203.414C51.7994 203.687 51.6002 204.015 51.3359 204.277C51.1824 204.43 50.9507 204.504 50.7542 204.613C50.7422 204.396 50.6839 204.169 50.7255 203.963C51.0456 202.376 51.0769 200.629 51.8055 199.253C52.529 197.888 57.8362 192.354 60.52 192.354C63.2037 192.354 87.1108 217.36 87.1108 217.36C90.7391 221.308 94.3987 225.227 98.2205 228.979C104.126 234.776 110.441 240.149 117.309 244.819C120.528 247.008 124.126 248.055 127.984 247.701C129.826 247.532 131.586 246.594 133.43 246.294C135.202 246.006 137.034 246.105 138.839 246.012C141.124 245.895 143.271 246.523 145.462 247.055C148.105 247.699 150.617 248.611 153.08 249.747C159.309 252.619 164.636 256.876 170.251 260.705C174.727 263.758 179.283 266.724 183.995 269.39C186.614 270.873 189.567 271.856 192.473 272.709C194.95 273.437 197.577 273.647 200.134 274.107C200.919 274.248 201.687 274.489 202.473 274.63L205.128 275.105C206.456 275.34 207.786 275.566 209.121 275.757C211.811 276.141 214.513 276.446 217.213 276.766C220.131 277.112 223.052 277.441 225.973 277.768C228.03 277.998 230.089 278.212 232.146 278.437C234.149 278.656 236.146 278.948 238.154 279.086C240.773 279.266 243.403 279.271 246.021 279.457C247.568 279.567 249.094 279.945 250.64 280.087C252.571 280.266 254.514 280.311 256.449 280.449C256.854 280.478 257.243 280.733 257.647 280.758C259.804 280.895 261.974 280.905 264.121 281.13C266.074 281.335 267.993 281.889 269.946 282.051C271.969 282.218 274.016 282.081 276.052 282.119C276.452 282.127 276.845 282.404 277.249 282.425C279.796 282.561 282.346 282.648 284.893 282.784C285.296 282.805 285.684 283.049 286.09 283.095C288.238 283.337 290.384 283.64 292.54 283.747C294.796 283.858 297.061 283.752 299.322 283.787C299.833 283.795 300.336 284.045 300.852 284.096C303.278 284.338 305.703 284.647 308.136 284.746C310.892 284.858 313.658 284.749 316.418 284.787C317.152 284.797 317.879 285.037 318.615 285.098L322.127 285.388C323.883 285.53 325.64 285.661 327.399 285.754C329.247 285.851 331.105 285.734 332.957 285.781C336.099 285.861 339.238 286.02 342.38 286.096C344.398 286.145 346.422 286.159 348.436 286.057C348.804 286.039 349.425 285.395 349.435 285.027C349.467 283.854 350.249 246.465 350.171 245.342C350.157 245.137 350.351 244.918 350.449 244.705C350.573 244.891 350.791 245.069 350.808 245.264C350.945 246.866 351.712 282.846 351.716 285.754C351.716 285.871 352.336 286.101 352.658 286.086C354.059 286.02 396.559 286.285 398.55 286.151C399.341 286.097 399.947 285.865 399.856 284.818C399.686 282.869 399.833 239.179 399.833 239.179C399.833 239.179 381.055 225.58 375.152 225.43ZM484.151 287.507C482.082 287.774 480.103 288.844 478.039 289.019C475.378 289.244 473.236 290.612 470.939 291.599C467.288 293.167 463.808 295.129 460.171 296.733C458.578 297.435 456.77 297.641 455.073 298.121C454.317 298.334 452.432 298.777 452.332 298.793L450.09 299.165C448.97 299.354 447.851 299.553 446.741 299.788C443.972 300.376 441.213 301.018 438.461 301.678C436.186 302.223 433.93 302.848 431.656 303.391L430.289 303.706C426.174 304.614 422.336 306.204 418.821 308.472C414.805 311.064 411.282 314.196 409.159 318.628C408.369 320.278 408.789 321.237 410.434 321.453C410.924 321.517 411.411 321.604 411.9 321.673C412.969 321.824 414.034 322.017 415.108 322.108C416.875 322.258 418.648 322.334 420.417 322.454C421.928 322.555 423.435 322.725 424.947 322.772C426.743 322.828 428.542 322.751 430.338 322.792C434.182 322.88 438.025 323.063 441.869 323.096C443.878 323.113 445.888 322.832 447.899 322.8C451.196 322.746 454.494 322.828 457.791 322.772C459.576 322.742 461.36 322.677 463.144 322.603L466.712 322.447C468.741 322.359 470.773 322.271 472.798 322.107C474.896 321.936 476.988 321.685 479.08 321.443C479.54 321.39 479.985 321.157 480.444 321.13C482.768 320.993 485.095 320.909 487.42 320.772C487.823 320.748 488.215 320.477 488.616 320.466C490.207 320.423 491.812 320.564 493.386 320.398C495.009 320.227 496.589 319.652 498.211 319.481C500.485 319.242 502.784 319.262 505.065 319.076C506.577 318.953 508.076 318.66 509.582 318.452C510.653 318.304 511.736 318.222 512.796 318.016C513.914 317.798 514.997 317.384 516.119 317.203C518.669 316.793 521.234 316.468 523.794 316.118C525.539 315.88 527.297 315.721 529.027 315.408C530.204 315.195 531.348 314.789 532.492 314.423C532.579 314.395 532.656 313.886 532.559 313.8C531.433 312.795 530.292 311.805 529.118 310.856C524.584 307.192 520.026 303.555 515.495 299.886C511.828 296.918 508.311 293.745 504.492 290.989C501.637 288.927 499.178 289.306 497.747 291.473L497.359 292.056C495.925 294.177 494.383 296.122 492.092 297.405C491.879 297.524 491.748 297.788 491.579 297.984C491.849 298.137 492.139 298.447 492.385 298.416C493.477 298.278 494.551 297.948 495.643 297.881C496.198 297.848 496.793 298.197 497.33 298.456C497.394 298.487 497.309 299.116 497.128 299.329C493.579 303.504 488.909 305.903 483.802 307.531C481.687 308.205 479.477 308.571 477.334 309.165C475.664 309.628 474.055 310.318 472.376 310.738C470.479 311.213 468.538 311.519 466.609 311.86C465.305 312.09 463.983 312.218 462.68 312.457C461 312.765 459.337 313.167 457.657 313.472C456.601 313.663 455.529 313.793 454.458 313.873C452.623 314.011 450.785 314.15 448.946 314.177C446.528 314.213 444.108 314.151 441.689 314.107C441.32 314.1 440.955 313.96 440.588 313.881C441.084 313.737 441.571 313.534 442.077 313.462C442.896 313.346 443.728 313.336 444.551 313.247C445.724 313.122 446.891 312.942 448.065 312.83C449.351 312.707 450.652 312.71 451.928 312.525C453.874 312.242 455.797 311.799 457.742 311.508C459.446 311.254 461.18 311.187 462.879 310.905C464.316 310.666 465.712 310.182 467.145 309.908C468.887 309.575 470.673 309.449 472.397 309.049C474.38 308.588 476.339 307.994 478.267 307.336C480.537 306.562 482.76 305.652 485.006 304.81C487.484 303.881 489.975 302.986 492.437 302.019C492.965 301.811 493.396 301.359 493.872 301.019C493.179 300.716 492.497 300.379 491.784 300.135C491.601 300.072 491.324 300.335 491.078 300.397C490.085 300.646 489.096 301 488.088 301.073C487.195 301.139 486.174 300.945 486.231 299.679C486.253 299.176 486.475 298.356 486.802 298.242C491.331 296.658 494.488 293.457 497.124 289.638C497.293 289.393 497.115 288.54 496.944 288.49C495.882 288.175 494.785 287.905 493.683 287.818C492.262 287.706 490.824 287.819 489.396 287.763C487.643 287.694 485.859 287.287 484.151 287.507ZM401.583 239.179L401.665 240.415C401.835 243.177 402.535 280.993 402.738 283.271C402.777 283.703 403.479 284.516 403.869 284.572C405.199 284.761 413.844 286.768 413.844 283.271C413.733 278.098 413.974 242.831 413.798 242.783C412.142 242.337 401.969 239.261 401.583 239.179ZM132.386 248.363C128.726 249.411 125.095 250.647 121.596 252.143C117.582 253.859 113.695 255.887 109.807 257.884C105.266 260.216 100.787 262.668 96.2729 265.053C94.9524 265.75 93.6192 266.428 92.2647 267.056C90.0595 268.079 87.8304 269.051 85.6166 270.056C85.413 270.148 85.2469 270.323 85.0634 270.46C85.2714 270.562 85.4712 270.729 85.6887 270.757L87.5947 271C88.8657 271.16 90.1378 271.31 91.4138 271.408C92.1295 271.464 92.8698 271.131 93.5949 271.148C95.6844 271.196 97.7724 271.324 99.8601 271.438C100.611 271.479 101.359 271.578 102.109 271.639C104.045 271.796 105.979 271.998 107.919 272.088C110.302 272.198 112.689 272.212 115.241 272.434C117.362 272.323 119.487 272.074 121.603 272.136C124.293 272.214 126.973 272.625 129.663 272.736C131.166 272.799 132.686 272.408 134.19 272.46C138.435 272.608 142.673 272.996 146.917 273.066C150.591 273.126 154.269 272.807 157.946 272.783C165.502 272.733 173.059 272.748 180.615 272.783C182.348 272.791 184.079 273.001 185.812 273.086C186.013 273.096 186.225 272.894 186.432 272.791C186.296 272.672 186.174 272.53 186.022 272.438C181.277 269.544 176.524 266.661 171.781 263.763C167.749 261.3 163.794 258.7 159.701 256.348L158.332 255.573C153.972 253.151 150.157 249.659 145.084 248.597C143.101 248.182 141.113 247.531 139.119 247.501C136.873 247.467 134.543 247.745 132.386 248.363Z" fill="#00160A"/>
<path fill-rule="evenodd" clip-rule="evenodd" d="M168.509 227.835C171.068 224.276 173.403 220.688 176.051 217.35C180.293 212.003 184.707 206.792 189.12 201.584C191.271 199.047 193.546 196.611 195.833 194.194C199.019 190.826 202.107 187.341 205.528 184.225C211.041 179.202 216.766 174.408 222.45 169.575C228.882 164.106 235.948 159.522 243.187 155.229C247.122 152.896 251.291 150.944 255.422 148.962C258.39 147.539 261.458 146.319 264.505 145.066C267.498 143.835 270.487 142.58 273.542 141.518C275.949 140.681 278.436 140.049 280.919 139.459C283.547 138.833 286.208 138.335 288.864 137.835C290.989 137.435 293.123 137.076 295.264 136.773C297.308 136.484 299.362 136.245 301.42 136.066C303.388 135.896 305.366 135.729 307.339 135.744C310.461 135.767 313.583 136.035 316.704 136.023C318.97 136.014 321.193 136.011 323.472 136.266C325.741 136.52 328.026 136.788 330.305 136.98C332.6 137.174 334.824 137.521 337.068 138.008C339.115 138.453 341.291 138.312 343.327 138.787C346.237 139.466 349.062 140.503 351.94 141.328C354.926 142.184 357.969 142.857 360.918 143.824C362.959 144.493 364.86 145.578 366.865 146.375C368.998 147.224 371.247 147.805 373.321 148.771C375.835 149.942 378.226 151.382 380.657 152.729C387.025 156.256 393.184 160.105 398.9 164.631C400.706 166.061 402.48 167.532 404.262 168.992C404.518 169.203 404.823 169.421 404.953 169.705C405.182 170.203 405.294 170.756 405.455 171.286C405.029 171.047 404.551 170.87 404.186 170.56C398.672 165.872 392.586 161.999 386.447 158.221C383.601 156.468 380.576 155.002 377.604 153.459C376.027 152.639 374.422 151.855 372.774 151.192C369.176 149.744 365.548 148.372 361.923 146.993C359.282 145.989 356.652 144.945 353.969 144.063C350.992 143.086 347.982 142.19 344.946 141.414C342.297 140.737 339.606 140.192 336.907 139.753C335.2 139.475 333.431 139.592 331.714 139.359C330.313 139.169 328.963 138.567 327.562 138.427C325.873 138.26 324.155 138.413 322.45 138.372C321.938 138.36 321.432 138.075 320.921 138.069C318.012 138.038 315.103 138.087 312.195 138.039C310.906 138.018 309.617 137.723 308.332 137.749C306.836 137.779 305.348 138.062 303.851 138.165C302.178 138.28 300.496 138.274 298.825 138.402C297.591 138.496 296.359 138.676 295.14 138.896C293.379 139.215 291.637 139.64 289.875 139.953C288.544 140.19 287.18 140.252 285.856 140.521C284.229 140.851 282.618 141.276 281.021 141.732C279.053 142.294 277.112 142.945 275.15 143.529C273.449 144.036 271.683 144.367 270.039 145.014C264.751 147.095 259.433 149.124 254.263 151.474C246.751 154.889 239.632 159.06 232.849 163.756C228.586 166.708 224.468 169.872 220.342 173.017C212.078 179.317 204.782 186.683 197.603 194.145C193.936 197.957 190.581 202.08 187.212 206.167C183.784 210.324 180.436 214.552 177.194 218.855C173.958 223.15 170.816 227.521 167.783 231.962C165.107 235.879 162.642 239.94 160.069 243.929C159.952 244.11 159.686 244.195 159.489 244.324C159.523 244.135 159.513 243.922 159.598 243.759C161.318 240.469 163.004 237.16 164.795 233.909C165.921 231.866 167.21 229.913 168.509 227.835Z" fill="#00160A"/>
<path fill-rule="evenodd" clip-rule="evenodd" d="M489.871 185.737C487.775 186.627 485.878 187.598 483.909 188.388C479.932 189.982 475.992 191.654 471.833 192.798C469.177 193.529 466.572 194.226 463.809 194.459C461.871 194.623 459.982 195.588 458.058 195.631C455.391 195.692 453.199 196.747 451.109 198.105C449.163 199.369 447.409 200.926 445.505 202.26C444.821 202.74 443.97 203.108 443.149 203.238C441.93 203.43 440.67 203.354 439.429 203.413C437.251 203.515 435.075 203.718 432.898 203.72C430.719 203.722 428.54 203.529 426.362 203.425C426.031 203.409 425.694 203.379 425.367 203.416C423.53 203.626 421.669 203.727 419.867 204.109C417.609 204.588 415.395 205.281 413.174 205.923C411.175 206.501 409.102 206.936 407.223 207.788C403.662 209.402 400.216 211.27 396.72 213.026C396.466 213.154 396.185 213.227 395.917 213.326C396.061 213.129 396.178 212.904 396.353 212.741C398.027 211.181 399.519 209.308 401.441 208.158C403.984 206.637 406.81 205.523 409.621 204.535C411.835 203.756 414.204 203.403 416.516 202.917C418.571 202.485 420.63 202.038 422.709 201.767C425.198 201.443 427.707 201.186 430.214 201.111C432.275 201.05 434.362 201.521 436.406 201.357C439.408 201.116 442.41 200.654 445.351 200.006C446.446 199.765 447.656 198.939 448.306 198.021C449.596 196.197 451.393 195.053 453.275 194.286C454.991 193.588 457.027 193.682 458.918 193.403C460.678 193.144 462.436 192.87 464.19 192.572C465.692 192.317 467.232 192.162 468.673 191.704C470.584 191.097 472.399 190.193 474.289 189.507C475.285 189.146 476.406 189.107 477.374 188.695C479.9 187.621 482.356 186.381 484.874 185.284C486.955 184.377 489.077 183.563 491.194 182.741C494.529 181.444 497.833 180.041 501.234 178.942C503.266 178.285 505.463 178.142 507.577 177.727C509.076 177.434 510.55 176.885 512.056 176.792C513.776 176.686 515.524 176.918 517.252 177.081C518.606 177.209 519.949 177.45 521.295 177.651C521.984 177.754 521.919 178.101 521.421 178.342C519.898 179.079 518.369 179.595 516.574 179.457C514.749 179.318 512.888 179.587 511.048 179.745C508.968 179.925 506.866 180.039 504.825 180.443C502.839 180.836 500.898 181.495 498.978 182.156C497.021 182.83 495.109 183.639 493.185 184.408C492.128 184.83 491.086 185.293 489.871 185.737Z" fill="#00160A"/>
<path fill-rule="evenodd" clip-rule="evenodd" d="M490.954 378.054C491.783 379.55 492.938 380.904 493.151 382.393C493.337 383.693 493.884 385.295 492.596 386.643C491.279 388.021 490.223 389.647 489.029 391.145C486.789 393.955 483.736 394.966 480.273 395.158C477.565 395.308 474.867 395.622 472.16 395.8C469.747 395.959 467.328 396.037 464.911 396.143C462.273 396.259 459.634 396.433 456.995 396.454C455.265 396.467 453.527 396.109 451.803 396.175C448.338 396.306 445.23 395.369 443.034 392.723C441.018 390.293 440.205 387.548 440.949 384.073C442.317 377.677 446.072 373.041 450.674 368.883C452.091 367.602 453.807 366.602 455.507 365.7C457.688 364.543 459.904 363.11 462.26 362.71C465.49 362.162 468.658 361.35 472.194 361.972C477.846 362.966 481.963 365.813 485.312 370.118C487.28 372.646 489.025 375.347 490.954 378.054M491.038 381.139C488.07 376.005 485.097 370.817 480.289 367.174C478.303 365.668 475.849 364.558 473.435 363.9C471.221 363.297 468.849 363.474 466.428 363.907C463.467 364.436 460.611 365.08 457.884 366.29C454.004 368.013 450.727 370.61 448.035 373.84C444.112 378.547 440.908 383.508 443.317 390.153C444.222 392.649 447.407 394.626 450.086 394.193C451.703 393.932 453.401 394.132 455.06 394.189C456.465 394.237 457.872 394.513 459.267 394.447C461.679 394.333 464.078 393.926 466.489 393.837C469.503 393.725 472.524 393.81 475.541 393.81C476.615 393.81 477.716 393.962 478.757 393.776C480.576 393.452 482.465 393.164 484.134 392.428C488.251 390.613 492.736 386.961 491.038 381.139Z" fill="#00160A"/>
<path fill-rule="evenodd" clip-rule="evenodd" d="M235.199 388.224C236.813 386.277 238.525 384.53 239.829 382.519C241.481 379.971 241.624 377.077 241.265 374.051C240.952 371.403 241.949 369.019 243.757 366.962C245.782 364.66 248.454 363.438 251.161 362.292C253.596 361.26 256.046 362.059 258.293 362.929C259.323 363.328 260.171 364.602 260.752 365.669C262.337 368.581 263.146 371.803 264.238 374.915C265.098 377.364 264.39 379.315 263.258 381.013C262.159 382.661 260.399 383.972 258.705 385.093C256.608 386.48 254.368 387.742 252.031 388.648C249.527 389.617 246.843 390.123 244.23 390.801C243.204 391.068 242.165 391.316 241.117 391.455C240.335 391.559 239.526 391.445 238.732 391.481C236.23 391.594 233.731 391.773 231.229 391.847C229.258 391.906 227.283 391.848 225.309 391.839C223.204 391.831 221.098 391.772 218.994 391.822C216.873 391.873 214.755 392.035 212.636 392.139C212.193 392.161 211.746 392.117 211.304 392.152C211.029 392.174 210.762 392.287 210.491 392.36C210.714 392.065 210.878 391.61 211.17 391.502C212.945 390.845 214.753 390.291 216.689 390.475C216.744 390.48 216.801 390.479 216.856 390.475C219.184 390.288 221.512 390.084 223.842 389.919C224.877 389.846 225.919 389.839 226.958 389.823C228.088 389.805 229.22 389.793 230.35 389.815C231.167 389.831 232.064 390.141 232.779 389.896C233.639 389.602 234.344 388.857 235.199 388.224M243.618 371.469C243.599 372.672 243.611 373.877 243.553 375.078C243.47 376.787 243.718 378.636 243.143 380.17C241.954 383.349 240.012 386.15 237.556 388.554C237.187 388.915 236.948 389.409 236.648 389.841C237.237 389.941 237.827 390.13 238.414 390.119C239.111 390.105 239.818 389.972 240.497 389.799C242.573 389.27 244.705 388.873 246.69 388.104C250.669 386.562 254.607 384.898 258.478 383.102C260.544 382.144 262.02 380.448 262.089 378.022C262.131 376.584 261.887 375.137 261.663 373.691C261.276 371.196 260.134 369.135 259.128 366.954C258.398 365.372 256.97 364.38 255.472 364.234C253.71 364.062 251.789 364.401 250.087 364.969C247.006 365.997 244.783 368.094 243.618 371.469Z" fill="#00160A"/>
<path fill-rule="evenodd" clip-rule="evenodd" d="M392.754 212.497C391.891 209.482 393.51 207.234 395.027 205.121C398.394 200.431 403.148 197.444 408.315 195.088C410.557 194.067 412.822 193.052 415.163 192.306C417.975 191.41 420.88 190.805 423.745 190.071C424.145 189.968 424.537 189.784 424.941 189.752C426.029 189.665 425.554 189.248 425.142 188.872C422.648 186.588 420.146 184.311 417.643 182.035C416.515 181.009 415.362 180.009 414.256 178.96C413.918 178.64 413.612 178.231 413.446 177.803C413.288 177.395 413.331 176.91 413.287 176.458C413.705 176.616 414.224 176.667 414.527 176.949C418.301 180.452 422.041 183.993 425.799 187.514C426.267 187.952 427.075 188.768 427.239 188.661C427.882 188.244 428.579 187.604 428.799 186.904C429.318 185.251 429.49 183.492 429.957 181.819C430.807 178.771 433.175 177.046 435.82 175.765C439.067 174.191 442.4 172.786 445.738 171.414C449.94 169.686 454.193 168.084 458.41 166.392C462.34 164.815 466.177 162.957 470.203 161.689C472.172 161.069 474.474 161.506 476.626 161.48C476.705 161.479 476.786 161.638 476.866 161.723C476.725 161.836 476.6 162.001 476.439 162.055C472.13 163.509 467.792 164.881 463.514 166.422C460.563 167.485 457.708 168.813 454.783 169.951C453.56 170.426 452.217 170.603 451.011 171.111C448.486 172.175 446.03 173.403 443.516 174.495C441.667 175.298 439.721 175.89 437.906 176.759C435.448 177.937 432.868 179.126 432.06 182.076C431.76 183.174 432.184 184.51 431.768 185.529C431.187 186.949 430.348 188.419 429.226 189.432C426.915 191.516 423.962 192.406 420.954 193.089C419.123 193.504 417.351 194.209 415.509 194.542C411.795 195.214 408.385 196.671 405.113 198.433C400.596 200.866 397.035 204.365 394.579 208.885C393.913 210.111 393.635 211.547 393.162 212.88C393.112 213.023 392.949 213.127 392.838 213.248C392.838 213.026 392.837 212.803 392.754 212.497Z" fill="#00160A"/>
<path fill-rule="evenodd" clip-rule="evenodd" d="M350.489 323.452C347.96 323.341 345.597 323.132 343.235 323.146C340.81 323.16 338.45 322.937 336.046 322.552C334.07 322.236 332.134 322.124 330.31 321.162C329.374 320.668 329.036 320.201 329.096 319.086C329.186 317.42 328.815 315.734 328.837 314.059C328.892 309.811 329.938 305.88 333.217 302.916C334.756 301.525 336.759 301.039 338.689 300.304C341.716 299.151 344.34 300.47 346.966 300.956C349.589 301.442 351.981 303.256 354.429 304.573C356.353 305.608 358.413 306.537 360.03 307.95C361.459 309.199 362.52 310.965 363.441 312.667C364.148 313.971 364.714 315.528 364.726 316.978C364.736 318.221 364.084 319.618 363.346 320.685C362.084 322.508 360.092 322.977 357.938 322.788C357.718 322.768 357.492 322.766 357.272 322.788C355.066 323.005 352.861 323.23 350.489 323.452M361.326 317.116C361.698 316.266 362.546 315.275 362.344 314.595C361.928 313.196 361.239 311.613 360.156 310.722C355.398 306.806 350.334 303.422 344.089 302.153C340.784 301.481 337.793 301.875 334.897 303.45C332.748 304.62 332.568 306.407 334.421 307.881C335.421 308.676 336.422 309.47 337.444 310.235C341.79 313.491 346.607 315.789 351.87 317.091C353.859 317.583 355.912 317.929 357.953 318.057C359.002 318.122 360.089 317.561 361.326 317.116M360.326 320.784C360.79 320.359 361.254 319.934 361.718 319.509C361.109 319.522 360.5 319.519 359.894 319.56C359.7 319.573 359.506 319.787 359.325 319.77C357.1 319.568 354.858 319.454 352.66 319.082C350.813 318.769 348.93 318.352 347.223 317.613C344.967 316.635 342.83 315.362 340.711 314.1C337.889 312.418 334.986 310.812 333.116 307.936C332.896 307.598 332.485 307.384 332.162 307.113C331.936 307.484 331.594 307.828 331.502 308.23C331.121 309.896 330.776 311.573 330.496 313.259C330.311 314.368 330.158 315.499 330.171 316.618C330.192 318.548 331.559 320.362 332.946 320.446C335.066 320.575 337.261 320.37 339.293 320.857C342.229 321.561 345.153 321.418 348.089 321.428C350.153 321.436 352.217 321.21 354.282 321.123C356.24 321.042 358.2 321.007 360.326 320.784Z" fill="#00160A"/>
<path fill-rule="evenodd" clip-rule="evenodd" d="M389.086 210.83C388.897 209.974 388.685 209.199 388.71 208.431C388.76 206.847 388.788 205.238 389.088 203.689C390.224 197.821 394.42 194.137 398.62 190.413C402.151 187.281 405.794 184.214 407.946 179.827C408.785 178.118 408.672 176.439 408.627 174.598C408.518 170.226 406.121 167.166 403.126 164.641C400.055 162.052 396.567 159.94 393.18 157.745C388.946 155.003 385.345 151.731 383.046 147.134C381.67 144.383 382.355 138.918 384.627 136.815C385.177 136.306 386.049 135.907 386.78 135.895C387.618 135.88 388.026 136.633 387.828 137.529C387.787 137.714 387.695 137.992 387.561 138.037C385.759 138.648 384.003 143.266 385.236 145.016C386.128 146.282 386.45 148.013 387.485 149.1C389.527 151.247 391.839 153.149 394.127 155.047C397.956 158.223 401.964 161.192 405.686 164.486C408.471 166.95 410.468 170.171 411.261 173.79C411.661 175.618 411.303 177.776 410.431 179.649C408.657 183.459 405.89 186.399 402.714 189.116C398.956 192.33 394.8 195.271 392.409 199.76C391.336 201.775 390.61 204.083 390.261 206.341C389.99 208.098 390.561 209.983 390.72 211.814C390.743 212.073 390.556 212.349 390.466 212.617C390.256 212.457 389.991 212.336 389.848 212.13C389.584 211.75 389.391 211.321 389.086 210.83Z" fill="#00160A"/>
<path fill-rule="evenodd" clip-rule="evenodd" d="M570.648 319.2C570.407 320.776 570.403 322.305 570.054 323.751C569.532 325.919 568.884 328.074 568.076 330.151C567.136 332.568 566.036 334.93 564.872 337.249C564.105 338.776 563.152 340.22 562.179 341.63C561.837 342.126 561.185 342.406 560.68 342.793C559.603 343.617 559.334 342.304 559.34 342.011C559.395 339.346 559.257 336.686 560.06 334.042C560.646 332.111 560.598 329.994 560.935 327.978C561.163 326.62 561.598 325.297 561.891 323.948C562.331 321.925 562.704 319.887 563.148 317.865C563.906 314.42 564.705 311.009 568.116 309.019C568.799 308.62 569.116 308.623 569.803 309.07C571.353 310.079 572.007 311.243 571.598 313.13C571.173 315.096 571.01 317.119 570.648 319.2M569.898 316.283C569.976 314.76 570.108 313.238 570.095 311.716C570.091 311.291 569.749 310.717 569.388 310.498C569.115 310.331 568.396 310.474 568.169 310.734C567.449 311.563 566.707 312.438 566.26 313.426C564.888 316.453 564.102 319.617 563.798 322.972C563.549 325.716 562.669 328.402 562.07 331.114C561.898 331.894 561.7 332.671 561.568 333.458C561.217 335.556 560.89 337.658 560.566 339.76C560.5 340.189 560.494 340.626 560.46 341.06C560.938 340.759 561.658 340.57 561.857 340.14C563.372 336.87 564.876 333.587 566.2 330.236C567.136 327.865 567.865 325.402 568.53 322.938C568.847 321.764 568.711 320.473 568.948 319.269C569.127 318.357 569.572 317.498 569.898 316.283Z" fill="#00160A"/>
<path fill-rule="evenodd" clip-rule="evenodd" d="M165.758 395.477C164.553 395.255 163.522 394.989 162.475 394.82C160.85 394.558 159.194 394.457 157.589 394.114C155.643 393.698 153.721 393.15 151.816 392.57C150.093 392.045 148.406 391.404 146.709 390.795C146.649 390.773 146.602 390.467 146.647 390.435C147.024 390.173 147.404 389.783 147.82 389.732C151.248 389.316 154.144 391.295 157.349 391.929C160.017 392.457 162.627 393.291 165.302 393.769C167.109 394.092 168.986 394.003 170.827 394.156C171.681 394.227 172.524 394.431 173.369 394.587C175.572 394.991 177.763 395.489 179.98 395.783C181.807 396.027 183.679 395.934 185.506 396.176C186.903 396.361 188.27 396.806 189.636 397.189C192.289 397.932 194.932 398.712 197.577 399.482C197.742 399.53 197.893 399.624 198.051 399.697C197.9 399.735 197.746 399.817 197.599 399.805C196.009 399.67 194.414 399.569 192.833 399.363C190.968 399.12 189.118 398.766 187.257 398.492C186.268 398.346 185.27 398.26 184.275 398.156C182.089 397.927 179.891 397.779 177.72 397.455C175.827 397.173 173.977 396.605 172.084 396.33C170.167 396.051 168.22 395.981 166.288 395.798C166.158 395.785 166.046 395.588 165.758 395.477Z" fill="#00160A"/>
<path fill-rule="evenodd" clip-rule="evenodd" d="M375.509 233.587C378.341 232.582 384.423 237.219 382.447 241.973C380.166 247.463 373.09 246.417 371.213 244.044C367.688 239.588 370.122 235.5 375.509 233.587ZM372.22 237.849C368.671 241.245 374.62 245.212 377.26 244.324C384.259 241.972 379.831 230.566 372.22 237.849Z" fill="#00160A"/>
<path fill-rule="evenodd" clip-rule="evenodd" d="M571.149 327.037C572.852 323.917 574.225 320.697 577.216 318.657C577.575 318.412 578.295 318.104 578.434 318.242C578.818 318.623 579.197 319.224 579.202 319.741C579.241 324.567 576.101 328.168 574.217 332.243C573.223 334.394 571.805 336.349 570.558 338.381C570.31 338.786 570.002 339.166 569.667 339.505C569.354 339.821 568.701 340.343 568.658 340.302C568.133 339.791 567.469 339.253 567.294 338.601C567.118 337.948 567.371 337.133 567.579 336.432C568.323 333.925 569.092 331.424 569.935 328.95C570.16 328.288 570.681 327.727 571.149 327.037M569.398 333.789C569.175 335.011 568.947 336.232 568.734 337.456C568.681 337.759 568.678 338.07 568.651 338.377C568.956 338.113 569.367 337.907 569.549 337.575C571.896 333.278 574.258 328.988 576.502 324.637C577.119 323.442 577.378 322.058 577.742 320.744C577.791 320.567 577.529 320.158 577.338 320.101C577.125 320.037 576.685 320.175 576.588 320.356C574.227 324.768 571.899 329.196 569.398 333.789Z" fill="#00160A"/>
<path fill-rule="evenodd" clip-rule="evenodd" d="M388.137 218.268C388.137 213.248 399.001 217.276 399.921 218.73C400.152 219.095 400.624 232.921 399.817 230.976C398.954 228.801 399.55 220.03 398.606 219.427C395.552 217.917 391.857 217.138 390.404 217.652C387.895 218.24 390.567 228.867 388.984 227.067C388.893 226.753 388.809 226.436 388.707 226.125C388.591 225.776 388.137 220.701 388.137 218.268Z" fill="#00160A"/>
<path fill-rule="evenodd" clip-rule="evenodd" d="M435.185 199.409C434.444 199.279 433.652 199.343 433.331 198.986C431.799 197.276 430.391 195.456 428.949 193.666C428.72 193.382 428.542 193.056 428.34 192.749C429.025 192.651 429.968 192.222 430.347 192.517C431.355 193.302 432.216 194.333 432.958 195.39C433.852 196.663 434.562 198.064 435.185 199.409Z" fill="#00160A"/>
<path fill-rule="evenodd" clip-rule="evenodd" d="M394.504 219.223C394.542 218.796 395.598 219.745 395.625 220.087C395.776 221.999 396.514 230.431 395.828 229.542C395.44 228.721 395.084 226.441 394.913 225.541C394.743 224.64 394.504 222.041 394.504 219.223Z" fill="#00160A"/>
<path fill-rule="evenodd" clip-rule="evenodd" d="M410.962 258.798C410.939 260.733 411.006 262.667 410.962 264.601C410.936 265.744 407.868 266.198 406.519 265.516C405.166 264.833 405.589 259.588 405.514 258.798C405.276 256.319 405.179 253.819 404.8 251.363C404.55 249.746 404.386 247.798 405.155 247.549C407.954 246.644 410.441 250.13 410.318 250.252C410.64 252.759 410.965 258.524 410.962 258.798ZM406.842 253.261C406.953 253.714 407.095 261.615 407.289 264.431C407.322 264.899 409.128 264.899 409.52 264.08C409.895 261.823 409.112 253.753 409.128 251.06C409.13 250.629 408.586 250.013 408.141 249.793C406.671 249.067 406.408 249.272 406.519 250.9C406.566 251.58 406.731 252.252 406.842 253.261Z" fill="#00160A"/>
<path fill-rule="evenodd" clip-rule="evenodd" d="M312.718 299.042C313.161 298.871 313.659 299.091 313.83 299.534C314.002 299.977 313.781 300.475 313.338 300.646C293.644 308.254 293.644 323.146 313.676 346.108C331.588 366.639 365.083 385.633 414.152 403.044C414.6 403.203 414.834 403.694 414.675 404.142C414.516 404.59 414.025 404.824 413.577 404.665C364.255 387.164 330.526 368.038 312.38 347.239C291.67 323.5 291.67 307.173 312.718 299.042Z" fill="#E7EAEE"/>
<path d="M345.968 399.525C346.123 399.076 346.613 398.838 347.062 398.994C347.511 399.149 347.749 399.638 347.594 400.087C343.771 411.14 336.791 420.35 326.673 427.703C316.588 435.031 299.927 441.663 276.668 447.629C276.208 447.747 275.739 447.47 275.621 447.01C275.503 446.55 275.78 446.081 276.24 445.963L277.858 445.545C300.08 439.737 316.021 433.317 325.662 426.312C335.5 419.162 342.263 410.239 345.968 399.525Z" fill="#09EEE3"/>
<path fill-rule="evenodd" clip-rule="evenodd" d="M346.924 408.939C347.032 408.477 347.494 408.189 347.957 408.297C348.419 408.405 348.707 408.867 348.599 409.33C345.15 424.113 337.809 434.692 326.589 441.005C315.504 447.241 303.558 451.483 290.754 453.729C290.286 453.811 289.84 453.498 289.758 453.03C289.676 452.563 289.989 452.117 290.457 452.035C303.07 449.822 314.832 445.646 325.745 439.506C336.524 433.441 343.579 423.273 346.924 408.939Z" fill="#E7EAEE"/>
<path fill-rule="evenodd" clip-rule="evenodd" d="M400.747 408.073C400.858 407.611 401.323 407.327 401.785 407.438C418.772 411.528 433.81 413.812 446.896 414.291L447.878 414.324C460.95 414.719 479.832 413.675 504.513 411.19C504.985 411.142 505.407 411.487 505.455 411.959C505.502 412.432 505.158 412.854 504.685 412.901L500.97 413.269C477.419 415.555 459.377 416.469 446.833 416.01C433.623 415.526 418.474 413.226 401.382 409.11C400.92 408.999 400.636 408.535 400.747 408.073Z" fill="#E7EAEE"/>
<path fill-rule="evenodd" clip-rule="evenodd" d="M275.063 306.934C275.452 306.661 275.988 306.754 276.261 307.143C276.534 307.531 276.441 308.068 276.052 308.341C271.272 311.7 268.765 315.096 268.447 318.505C268.126 321.956 270.055 326.714 274.289 332.719C274.563 333.107 274.47 333.644 274.082 333.917C273.694 334.191 273.158 334.098 272.884 333.71C268.435 327.401 266.367 322.3 266.735 318.346C267.106 314.352 269.91 310.555 275.063 306.934Z" fill="#00160A"/>
<path fill-rule="evenodd" clip-rule="evenodd" d="M276.915 310.88C277.19 310.687 277.569 310.753 277.762 311.028C277.955 311.303 277.889 311.683 277.614 311.876C274.233 314.252 272.459 316.655 272.234 319.067C272.007 321.508 273.372 324.875 276.367 329.123C276.561 329.398 276.495 329.777 276.221 329.971C275.946 330.164 275.566 330.099 275.373 329.824C272.225 325.361 270.762 321.752 271.022 318.954C271.285 316.128 273.269 313.443 276.915 310.88Z" fill="#00160A"/>
</svg>
