<svg style="position: absolute; width: 0; height: 0; overflow: hidden;" xmlns="http://www.w3.org/2000/svg">
    <defs>
        <symbol id="icon-food" viewBox="0 0 24 25">
            <title>food</title>
            <path d="M12.5628 12.0309C12.7203 12.0536 12.8805 12.0128 13.008 11.9175C13.1354 11.8222 13.2198 11.6802 13.2426 11.5227C13.2654 11.3651 13.2246 11.205 13.1293 11.0775C13.034 10.95 12.8919 10.8656 12.7344 10.8429C11.4432 10.6569 9.90961 11.7093 9.90961 13.4385C9.90961 13.5976 9.97282 13.7502 10.0853 13.8627C10.1979 13.9752 10.3505 14.0385 10.5096 14.0385C10.6687 14.0385 10.8213 13.9752 10.9339 13.8627C11.0464 13.7502 11.1096 13.5976 11.1096 13.4385C11.1096 12.4785 11.958 11.9433 12.5628 12.0309Z" />
            <path d="M4.79161 9.0608C1.89121 11.3504 1.81561 15.2312 3.17521 17.8448C4.08841 19.6016 5.84521 21.1652 8.48041 21.1652C9.13441 21.1652 9.60601 21.1472 9.97801 21.134C11.1024 21.0908 11.3064 21.0836 12.8724 21.71C14.9556 22.5428 17.1708 22.2956 19.0212 21.1388C20.6868 20.0972 21.6432 17.6804 21.4812 15.7184C21.384 14.54 21.4716 14.0792 21.5844 13.484C21.66 13.088 21.7464 12.6344 21.798 11.8712C21.9264 9.9572 21.024 8.1608 20.5332 7.304C20.0412 6.4472 19.2132 5.108 17.2644 3.878C15.6648 2.86759 12.6348 2.38399 10.2372 3.70279C8.48041 4.66879 7.60201 5.5472 6.54841 7.3028C6.14881 7.9688 5.76601 8.2904 4.79161 9.0608ZM17.88 13.058C17.88 13.7663 17.7405 14.4678 17.4694 15.1222C17.1983 15.7766 16.801 16.3713 16.3001 16.8721C15.7993 17.373 15.2046 17.7703 14.5502 18.0414C13.8958 18.3125 13.1944 18.452 12.486 18.452C11.7777 18.452 11.0762 18.3125 10.4218 18.0414C9.76738 17.7703 9.17275 17.373 8.67187 16.8721C8.17099 16.3713 7.77367 15.7766 7.5026 15.1222C7.23153 14.4678 7.09201 13.7663 7.09201 13.058C7.09201 11.6274 7.6603 10.2554 8.67187 9.24386C9.68344 8.23229 11.0554 7.664 12.486 7.664C13.9166 7.664 15.2886 8.23229 16.3001 9.24386C17.3117 10.2554 17.88 11.6274 17.88 13.058Z"  />
        </symbol>
        <symbol id="icon-vehicle" viewBox="0 0 24 25">
            <title>vehicle</title>
            <path d="M3 7.5C1.89 7.5 1 8.39 1 9.5V17.5H3C3 18.2956 3.31607 19.0587 3.87868 19.6213C4.44129 20.1839 5.20435 20.5 6 20.5C6.79565 20.5 7.55871 20.1839 8.12132 19.6213C8.68393 19.0587 9 18.2956 9 17.5H15C15 18.2956 15.3161 19.0587 15.8787 19.6213C16.4413 20.1839 17.2044 20.5 18 20.5C18.7956 20.5 19.5587 20.1839 20.1213 19.6213C20.6839 19.0587 21 18.2956 21 17.5H23V13.5C23 12.39 22.11 11.5 21 11.5L18 7.5H3ZM3 9H7V11.5H3V9ZM9 9H13V11.5H9V9ZM15 9H17.5L19.46 11.5H15V9ZM6 16C6.39782 16 6.77936 16.158 7.06066 16.4393C7.34196 16.7206 7.5 17.1022 7.5 17.5C7.5 17.8978 7.34196 18.2794 7.06066 18.5607C6.77936 18.842 6.39782 19 6 19C5.60218 19 5.22064 18.842 4.93934 18.5607C4.65804 18.2794 4.5 17.8978 4.5 17.5C4.5 17.1022 4.65804 16.7206 4.93934 16.4393C5.22064 16.158 5.60218 16 6 16ZM18 16C18.3978 16 18.7794 16.158 19.0607 16.4393C19.342 16.7206 19.5 17.1022 19.5 17.5C19.5 17.8978 19.342 18.2794 19.0607 18.5607C18.7794 18.842 18.3978 19 18 19C17.6022 19 17.2206 18.842 16.9393 18.5607C16.658 18.2794 16.5 17.8978 16.5 17.5C16.5 17.1022 16.658 16.7206 16.9393 16.4393C17.2206 16.158 17.6022 16 18 16Z"  />
        </symbol>
        <symbol id="icon-firewoods" viewBox="0 0 24 25">
            <title>firewoods</title>
            <path d="M22.478 24.5001H16.4839C16.0624 24.5001 15.7073 24.3518 15.4185 24.0552C15.1298 23.7587 14.9854 23.4074 14.9854 23.0016V17.0074C14.9854 16.586 14.8371 16.2308 14.5405 15.9421C14.2439 15.6533 13.8927 15.5089 13.4868 15.5089H10.4898C10.0683 15.5089 9.71317 15.6533 9.42439 15.9421C9.13561 16.2308 8.99122 16.586 8.99122 17.0074V23.0016C8.99122 23.4074 8.84293 23.7587 8.54634 24.0552C8.24976 24.3518 7.89854 24.5001 7.49268 24.5001H1.47512C1.1161 24.5001 0.780488 24.3479 0.468293 24.0435C0.156098 23.7391 0 23.3996 0 23.025C0 22.744 0.0702439 22.4865 0.210732 22.2523L10.162 8.29715L6.20488 2.77129C5.98634 2.41226 5.93171 2.03372 6.04098 1.63567C6.15024 1.23762 6.38439 0.937136 6.74341 0.734208C7.10244 0.531281 7.48098 0.480549 7.87902 0.582013C8.27707 0.683476 8.57756 0.913721 8.78049 1.27275L11.9883 5.74495L15.1727 1.24933C15.3756 0.905916 15.68 0.679574 16.0859 0.570305C16.4917 0.461037 16.8702 0.507866 17.2215 0.710794C17.5727 0.913721 17.8029 1.21421 17.9122 1.61226C18.0215 2.01031 17.9746 2.38885 17.7717 2.74787L13.8146 8.29715L23.7659 22.2757C23.9063 22.5255 23.9766 22.7674 23.9766 23.0016C23.9766 23.3762 23.8244 23.7196 23.52 24.0318C23.2156 24.344 22.8683 24.5001 22.478 24.5001Z"  />
            <defs>
                <clipPath id="clip0">
                    <rect width="23.9766" height="24" fill="white" transform="translate(0 0.5)" />
                </clipPath>
            </defs>
        </symbol>
    </defs>
</svg>